<svg width="202" height="104" viewBox="0 0 202 104" fill="none" xmlns="http://www.w3.org/2000/svg">
<g clip-path="url(#clip0_7010_1043)">
<path d="M23.2602 70.8306H24.4019C24.5005 70.8306 24.5522 70.8823 24.5522 70.9809V81.1902C24.5522 81.2888 24.5005 81.3405 24.4019 81.3405H23.2602C23.1615 81.3405 23.1098 81.2888 23.1098 81.1902V73.7435C23.1098 73.7153 23.1004 73.6965 23.0863 73.6965C23.0723 73.6965 23.0535 73.7059 23.0347 73.7247L21.5923 76.4121C21.5641 76.4825 21.5171 76.5154 21.4561 76.5154C21.395 76.5154 21.3527 76.4825 21.3198 76.4121L19.8916 73.7388C19.8916 73.7388 19.854 73.7106 19.8399 73.7106C19.8258 73.7106 19.8164 73.7247 19.8164 73.7576V81.1902C19.8164 81.2888 19.7647 81.3405 19.666 81.3405H18.5244C18.4257 81.3405 18.374 81.2888 18.374 81.1902V70.9809C18.374 70.8823 18.4257 70.8306 18.5244 70.8306H19.666C19.7365 70.8306 19.7976 70.8635 19.8446 70.9339L21.4232 73.7576C21.4232 73.7576 21.4467 73.7717 21.4702 73.7717C21.4936 73.7717 21.503 73.767 21.5171 73.7576L23.077 70.9339C23.1145 70.8635 23.1756 70.8306 23.2555 70.8306H23.2602Z" fill="#CBC3A4"/>
<path d="M31.5485 72.0758H28.1704C28.1281 72.0758 28.1093 72.0946 28.1093 72.1369V75.3974C28.1093 75.4397 28.1281 75.4585 28.1704 75.4585H30.2423C30.341 75.4585 30.3927 75.5102 30.3927 75.6088V76.5532C30.3927 76.6519 30.341 76.7035 30.2423 76.7035H28.1704C28.1281 76.7035 28.1093 76.7223 28.1093 76.7646V80.0393C28.1093 80.0816 28.1281 80.1004 28.1704 80.1004H31.5485C31.6471 80.1004 31.6988 80.152 31.6988 80.2507V81.195C31.6988 81.2937 31.6471 81.3454 31.5485 81.3454H26.8173C26.7187 81.3454 26.667 81.2937 26.667 81.195V70.9858C26.667 70.8871 26.7187 70.8354 26.8173 70.8354H31.5485C31.6471 70.8354 31.6988 70.8871 31.6988 70.9858V71.9301C31.6988 72.0288 31.6471 72.0805 31.5485 72.0805V72.0758Z" fill="#CBC3A4"/>
<path d="M33.4551 81.1902V70.9809C33.4551 70.8823 33.5068 70.8306 33.6054 70.8306H36.0673C36.8989 70.8306 37.5613 71.0843 38.0499 71.5964C38.5386 72.1085 38.7876 72.7991 38.7876 73.6683V78.5028C38.7876 79.3719 38.5433 80.0626 38.0499 80.5747C37.5613 81.0868 36.8989 81.3405 36.0673 81.3405H33.6054C33.5068 81.3405 33.4551 81.2888 33.4551 81.1902ZM34.9585 80.0955L36.0532 80.0814C36.4338 80.0814 36.7391 79.9357 36.9694 79.6397C37.1996 79.3438 37.3217 78.9397 37.3311 78.4323V73.7482C37.3311 73.2361 37.2184 72.832 36.9834 72.5313C36.7485 72.2306 36.4432 72.0803 36.0532 72.0803H34.9585C34.9162 72.0803 34.8974 72.0991 34.8974 72.1414V80.0391C34.8974 80.0814 34.9162 80.1002 34.9585 80.1002V80.0955Z" fill="#CBC3A4"/>
<path d="M40.7939 81.1902V70.9809C40.7939 70.8823 40.8456 70.8306 40.9443 70.8306H42.086C42.1846 70.8306 42.2363 70.8823 42.2363 70.9809V81.1902C42.2363 81.2888 42.1846 81.3405 42.086 81.3405H40.9443C40.8456 81.3405 40.7939 81.2888 40.7939 81.1902Z" fill="#CBC3A4"/>
<path d="M44.9327 80.7204C44.4347 80.2271 44.1904 79.5647 44.1904 78.7472V73.4147C44.1904 72.5925 44.4394 71.9394 44.9327 71.4461C45.4261 70.9575 46.0791 70.7085 46.8919 70.7085C47.7047 70.7085 48.3719 70.9528 48.8652 71.4461C49.3632 71.9347 49.6075 72.5925 49.6075 73.4147V73.6543C49.6075 73.753 49.5558 73.8046 49.4571 73.8046L48.3155 73.8657C48.2168 73.8657 48.1651 73.814 48.1651 73.7154V73.3254C48.1651 72.9167 48.0477 72.5831 47.8128 72.3341C47.5779 72.0851 47.2678 71.9582 46.8872 71.9582C46.5067 71.9582 46.2013 72.0851 45.9711 72.3341C45.7408 72.5831 45.6234 72.9167 45.6234 73.3254V78.8505C45.6234 79.2593 45.7361 79.5928 45.9711 79.8419C46.2013 80.0909 46.5067 80.2177 46.8872 80.2177C47.2678 80.2177 47.5732 80.0909 47.8128 79.8419C48.0477 79.5928 48.1651 79.2593 48.1651 78.8505V78.4606C48.1651 78.3619 48.2168 78.3102 48.3155 78.3102L49.4571 78.3713C49.5558 78.3713 49.6075 78.423 49.6075 78.5217V78.7472C49.6075 79.5694 49.3585 80.2271 48.8652 80.7204C48.3719 81.2137 47.7094 81.4627 46.8919 81.4627C46.0744 81.4627 45.4261 81.2137 44.9327 80.7204Z" fill="#CBC3A4"/>
<path d="M55.344 81.209L55.0151 79.48C55.0151 79.48 55.0057 79.4471 54.9916 79.433C54.9775 79.4236 54.9587 79.4189 54.9399 79.4189H52.4922C52.4922 79.4189 52.4546 79.4236 52.4405 79.433C52.4264 79.4424 52.417 79.4565 52.417 79.48L52.1022 81.209C52.0928 81.2982 52.0364 81.3452 51.9378 81.3452H50.7961C50.7444 81.3452 50.7068 81.3311 50.6833 81.2982C50.6599 81.2653 50.6505 81.2277 50.6599 81.1761L52.8962 70.9668C52.915 70.8776 52.9714 70.8306 53.0606 70.8306H54.3949C54.4936 70.8306 54.55 70.8776 54.5594 70.9668L56.8098 81.1761V81.2043C56.8098 81.2935 56.7629 81.3405 56.6736 81.3405H55.5037C55.4145 81.3405 55.3581 81.2935 55.3393 81.2043L55.344 81.209ZM52.7177 78.282H54.7144C54.7426 78.282 54.7614 78.2632 54.7614 78.2209L53.7419 72.8884C53.7419 72.8884 53.7231 72.8602 53.7137 72.8602C53.7043 72.8602 53.6949 72.8696 53.6855 72.8884L52.6801 78.2209C52.6801 78.2632 52.6942 78.282 52.7271 78.282H52.7177Z" fill="#CBC3A4"/>
<path d="M58.2432 81.1902V70.9809C58.2432 70.8823 58.2948 70.8306 58.3935 70.8306H59.5352C59.6338 70.8306 59.6855 70.8823 59.6855 70.9809V80.0344C59.6855 80.0767 59.7043 80.0955 59.7466 80.0955H63.1105C63.2092 80.0955 63.2609 80.1472 63.2609 80.2458V81.1902C63.2609 81.2888 63.2092 81.3405 63.1105 81.3405H58.3935C58.2948 81.3405 58.2432 81.2888 58.2432 81.1902Z" fill="#CBC3A4"/>
<path d="M68.3254 80.7204C67.8415 80.2271 67.5972 79.5788 67.5972 78.7754V78.3854C67.5972 78.2867 67.6488 78.2351 67.7475 78.2351H68.8563C68.9549 78.2351 69.0066 78.2867 69.0066 78.3854V78.7002C69.0066 79.1606 69.1194 79.5271 69.3543 79.8043C69.5845 80.0815 69.8805 80.2177 70.2423 80.2177C70.604 80.2177 70.9 80.0862 71.1349 79.8184C71.3698 79.5553 71.4873 79.2076 71.4873 78.7754C71.4873 78.4841 71.4262 78.2304 71.2994 78.0095C71.1725 77.7887 71.0081 77.5914 70.8013 77.4176C70.5946 77.2437 70.2611 76.9853 69.8006 76.6424C69.2885 76.2618 68.8892 75.9376 68.5979 75.6651C68.3066 75.3926 68.0623 75.0685 67.8603 74.6879C67.6582 74.3073 67.5596 73.861 67.5596 73.3536C67.5596 72.5408 67.7992 71.9018 68.2784 71.4226C68.7576 70.9481 69.3825 70.7085 70.153 70.7085C70.9235 70.7085 71.5954 70.9622 72.084 71.4743C72.5679 71.9864 72.8122 72.6536 72.8122 73.4852V73.861C72.8122 73.9597 72.7605 74.0114 72.6618 74.0114H71.5531C71.4544 74.0114 71.4027 73.9597 71.4027 73.861V73.457C71.4027 73.0059 71.29 72.6442 71.0551 72.367C70.8248 72.0898 70.5242 71.9535 70.153 71.9535C69.8006 71.9535 69.5187 72.0757 69.2979 72.32C69.0771 72.5643 68.969 72.9073 68.969 73.3489C68.969 73.7482 69.0771 74.0865 69.2979 74.3637C69.5187 74.6409 69.9416 75.0074 70.5758 75.4678C71.1772 75.9188 71.6282 76.2853 71.9336 76.5625C72.239 76.8444 72.4739 77.1498 72.6384 77.488C72.8028 77.8216 72.8874 78.221 72.8874 78.6814C72.8874 79.5224 72.6431 80.1942 72.1497 80.7016C71.6611 81.209 71.0175 81.458 70.2282 81.458C69.4389 81.458 68.7999 81.209 68.316 80.7157L68.3254 80.7204Z" fill="#CBC3A4"/>
<path d="M75.1941 80.711C74.6961 80.2083 74.4424 79.5458 74.4424 78.7142V73.4757C74.4424 72.6441 74.6914 71.977 75.1941 71.4695C75.6968 70.9621 76.3546 70.7131 77.1768 70.7131C77.9989 70.7131 78.6755 70.9668 79.1829 71.4695C79.6903 71.977 79.9393 72.6441 79.9393 73.4757V78.7142C79.9393 79.5458 79.6856 80.213 79.1829 80.711C78.6755 81.2137 78.0083 81.4627 77.1768 81.4627C76.3452 81.4627 75.6968 81.2137 75.1941 80.711ZM78.1352 79.8183C78.3748 79.5552 78.497 79.2075 78.497 78.7753V73.4005C78.497 72.9683 78.3748 72.6206 78.1352 72.3575C77.8956 72.0944 77.5761 71.9582 77.1721 71.9582C76.768 71.9582 76.4673 72.0897 76.2324 72.3575C75.9975 72.6206 75.88 72.973 75.88 73.4005V78.7753C75.88 79.2075 75.9975 79.5552 76.2324 79.8183C76.4673 80.0814 76.7821 80.2177 77.1721 80.2177C77.562 80.2177 77.8909 80.0861 78.1352 79.8183Z" fill="#CBC3A4"/>
<path d="M81.8945 81.1902V70.9809C81.8945 70.8823 81.9462 70.8306 82.0449 70.8306H83.1865C83.2852 70.8306 83.3369 70.8823 83.3369 70.9809V80.0344C83.3369 80.0767 83.3557 80.0955 83.398 80.0955H86.7619C86.8606 80.0955 86.9122 80.1472 86.9122 80.2458V81.1902C86.9122 81.2888 86.8606 81.3405 86.7619 81.3405H82.0449C81.9462 81.3405 81.8945 81.2888 81.8945 81.1902Z" fill="#CBC3A4"/>
<path d="M88.9747 80.6452C88.4814 80.1002 88.2324 79.3813 88.2324 78.4887V70.9809C88.2324 70.8823 88.2841 70.8306 88.3828 70.8306H89.5244C89.6231 70.8306 89.6748 70.8823 89.6748 70.9809V78.639C89.6748 79.1089 89.7922 79.4894 90.0271 79.7807C90.2621 80.072 90.5721 80.2176 90.9527 80.2176C91.3333 80.2176 91.6574 80.072 91.8923 79.7807C92.1273 79.4894 92.2447 79.1089 92.2447 78.639V70.9809C92.2447 70.8823 92.2964 70.8306 92.3951 70.8306H93.5367C93.6354 70.8306 93.6871 70.8823 93.6871 70.9809V78.4887C93.6871 79.3813 93.4381 80.1002 92.9353 80.6452C92.4326 81.1902 91.7749 81.4627 90.9527 81.4627C90.1305 81.4627 89.4728 81.1902 88.9794 80.6452H88.9747Z" fill="#CBC3A4"/>
<path d="M100.978 70.9809V71.9253C100.978 72.0239 100.927 72.0756 100.828 72.0756H98.8595C98.8172 72.0756 98.7985 72.0944 98.7985 72.1367V81.1902C98.7985 81.2888 98.7468 81.3405 98.6481 81.3405H97.5064C97.4078 81.3405 97.3561 81.2888 97.3561 81.1902V72.1367C97.3561 72.0991 97.3373 72.0756 97.295 72.0756H95.4345C95.3359 72.0756 95.2842 72.0239 95.2842 71.9253V70.9809C95.2842 70.8823 95.3359 70.8306 95.4345 70.8306H100.823C100.922 70.8306 100.974 70.8823 100.974 70.9809H100.978Z" fill="#CBC3A4"/>
<path d="M102.66 81.1902V70.9809C102.66 70.8823 102.712 70.8306 102.81 70.8306H103.952C104.051 70.8306 104.103 70.8823 104.103 70.9809V81.1902C104.103 81.2888 104.051 81.3405 103.952 81.3405H102.81C102.712 81.3405 102.66 81.2888 102.66 81.1902Z" fill="#CBC3A4"/>
<path d="M106.804 80.711C106.302 80.2083 106.053 79.5458 106.053 78.7142V73.4757C106.053 72.6441 106.302 71.977 106.804 71.4695C107.307 70.9621 107.965 70.7131 108.787 70.7131C109.609 70.7131 110.286 70.9668 110.793 71.4695C111.301 71.977 111.55 72.6441 111.55 73.4757V78.7142C111.55 79.5458 111.296 80.213 110.793 80.711C110.291 81.209 109.619 81.4627 108.787 81.4627C107.956 81.4627 107.307 81.2137 106.804 80.711ZM109.746 79.8183C109.985 79.5552 110.107 79.2075 110.107 78.7753V73.4005C110.107 72.9683 109.985 72.6206 109.746 72.3575C109.506 72.0944 109.186 71.9582 108.782 71.9582C108.378 71.9582 108.078 72.0897 107.843 72.3575C107.608 72.6206 107.49 72.973 107.49 73.4005V78.7753C107.49 79.2075 107.608 79.5552 107.843 79.8183C108.078 80.0814 108.392 80.2177 108.782 80.2177C109.172 80.2177 109.501 80.0861 109.746 79.8183Z" fill="#CBC3A4"/>
<path d="M117.882 70.8306H119.01C119.109 70.8306 119.16 70.8823 119.16 70.981V81.1902C119.16 81.2889 119.109 81.3406 119.01 81.3406H117.718C117.638 81.3406 117.582 81.2983 117.554 81.2184L115.002 74.3543C115.002 74.3543 114.979 74.3261 114.955 74.3308C114.937 74.3355 114.927 74.3496 114.927 74.3684L114.941 81.1855C114.941 81.2842 114.89 81.3359 114.791 81.3359H113.649C113.551 81.3359 113.499 81.2842 113.499 81.1855V70.9763C113.499 70.8776 113.551 70.8259 113.649 70.8259H114.927C115.007 70.8259 115.064 70.8682 115.092 70.9481L117.662 77.8122C117.671 77.8404 117.685 77.8545 117.709 77.8498C117.727 77.8451 117.737 77.8263 117.737 77.7981V70.981C117.737 70.8823 117.789 70.8306 117.887 70.8306H117.882Z" fill="#CBC3A4"/>
<path d="M121.693 80.7204C121.209 80.2271 120.965 79.5788 120.965 78.7754V78.3854C120.965 78.2867 121.016 78.2351 121.115 78.2351H122.229C122.327 78.2351 122.379 78.2867 122.379 78.3854V78.7002C122.379 79.1606 122.492 79.5271 122.722 79.8043C122.952 80.0815 123.248 80.2177 123.61 80.2177C123.972 80.2177 124.268 80.0862 124.502 79.8184C124.737 79.5553 124.855 79.2076 124.855 78.7754C124.855 78.4841 124.794 78.2304 124.667 78.0095C124.54 77.7887 124.376 77.5914 124.174 77.4176C123.967 77.2437 123.633 76.9853 123.178 76.6424C122.665 76.2618 122.266 75.9376 121.975 75.6651C121.684 75.3926 121.439 75.0685 121.237 74.6879C121.035 74.3073 120.937 73.861 120.937 73.3536C120.937 72.5408 121.176 71.9018 121.655 71.4226C122.135 70.9481 122.759 70.7085 123.535 70.7085C124.31 70.7085 124.977 70.9622 125.466 71.4743C125.95 71.9864 126.194 72.6536 126.194 73.4852V73.861C126.194 73.9597 126.142 74.0114 126.044 74.0114H124.93C124.831 74.0114 124.78 73.9597 124.78 73.861V73.457C124.78 73.0059 124.667 72.6442 124.437 72.367C124.206 72.0898 123.906 71.9535 123.535 71.9535C123.182 71.9535 122.9 72.0757 122.68 72.32C122.459 72.5643 122.351 72.9073 122.351 73.3489C122.351 73.7482 122.459 74.0865 122.68 74.3637C122.9 74.6409 123.323 75.0074 123.957 75.4678C124.559 75.9188 125.01 76.2853 125.315 76.5625C125.621 76.8444 125.856 77.1498 126.02 77.488C126.184 77.8216 126.269 78.221 126.269 78.6814C126.269 79.5224 126.025 80.1942 125.531 80.7016C125.043 81.209 124.399 81.458 123.61 81.458C122.821 81.458 122.182 81.209 121.698 80.7157L121.693 80.7204Z" fill="#CBC3A4"/>
<path d="M131.864 80.711C131.361 80.2083 131.112 79.5458 131.112 78.7142V73.4757C131.112 72.6441 131.361 71.977 131.864 71.4695C132.367 70.9621 133.024 70.7131 133.847 70.7131C134.669 70.7131 135.345 70.9668 135.853 71.4695C136.36 71.977 136.609 72.6441 136.609 73.4757V78.7142C136.609 79.5458 136.356 80.213 135.853 80.711C135.35 81.209 134.678 81.4627 133.847 81.4627C133.015 81.4627 132.367 81.2137 131.864 80.711ZM134.805 79.8183C135.045 79.5552 135.167 79.2075 135.167 78.7753V73.4005C135.167 72.9683 135.045 72.6206 134.805 72.3575C134.566 72.0944 134.246 71.9582 133.842 71.9582C133.438 71.9582 133.137 72.0897 132.902 72.3575C132.667 72.6206 132.55 72.973 132.55 73.4005V78.7753C132.55 79.2075 132.667 79.5552 132.902 79.8183C133.137 80.0814 133.452 80.2177 133.842 80.2177C134.232 80.2177 134.561 80.0861 134.805 79.8183Z" fill="#CBC3A4"/>
<path d="M143.427 72.0758H140.063C140.021 72.0758 140.002 72.0946 140.002 72.1369V75.3974C140.002 75.4397 140.021 75.4585 140.063 75.4585H142.121C142.219 75.4585 142.271 75.5102 142.271 75.6088V76.5532C142.271 76.6519 142.219 76.7035 142.121 76.7035H140.063C140.021 76.7035 140.002 76.7223 140.002 76.7646V81.195C140.002 81.2937 139.95 81.3454 139.852 81.3454H138.71C138.611 81.3454 138.56 81.2937 138.56 81.195V70.9858C138.56 70.8871 138.611 70.8354 138.71 70.8354H143.427C143.526 70.8354 143.577 70.8871 143.577 70.9858V71.9301C143.577 72.0288 143.526 72.0805 143.427 72.0805V72.0758Z" fill="#CBC3A4"/>
<path d="M153.532 70.9809V71.9253C153.532 72.0239 153.48 72.0756 153.382 72.0756H151.413C151.371 72.0756 151.352 72.0944 151.352 72.1367V81.1902C151.352 81.2888 151.3 81.3405 151.202 81.3405H150.06C149.961 81.3405 149.91 81.2888 149.91 81.1902V72.1367C149.91 72.0991 149.891 72.0756 149.849 72.0756H147.988C147.89 72.0756 147.838 72.0239 147.838 71.9253V70.9809C147.838 70.8823 147.89 70.8306 147.988 70.8306H153.377C153.476 70.8306 153.527 70.8823 153.527 70.9809H153.532Z" fill="#CBC3A4"/>
<path d="M160.091 72.0758H156.713C156.676 72.0758 156.652 72.0946 156.652 72.1369V75.3974C156.652 75.4397 156.671 75.4585 156.713 75.4585H158.785C158.884 75.4585 158.936 75.5102 158.936 75.6088V76.5532C158.936 76.6519 158.884 76.7035 158.785 76.7035H156.713C156.676 76.7035 156.652 76.7223 156.652 76.7646V80.0393C156.652 80.0816 156.671 80.1004 156.713 80.1004H160.091C160.19 80.1004 160.242 80.152 160.242 80.2507V81.195C160.242 81.2937 160.19 81.3454 160.091 81.3454H155.36C155.262 81.3454 155.21 81.2937 155.21 81.195V70.9858C155.21 70.8871 155.262 70.8354 155.36 70.8354H160.091C160.19 70.8354 160.242 70.8871 160.242 70.9858V71.9301C160.242 72.0288 160.19 72.0805 160.091 72.0805V72.0758Z" fill="#CBC3A4"/>
<path d="M161.585 81.2889C161.562 81.256 161.557 81.2137 161.576 81.162L163.662 76.1302C163.68 76.102 163.68 76.0692 163.662 76.041L161.576 71.0092L161.562 70.9481C161.562 70.8682 161.609 70.8259 161.698 70.8259H162.868C162.948 70.8259 163.004 70.8682 163.032 70.9481L164.399 74.5657C164.409 74.5939 164.423 74.6127 164.446 74.6127C164.47 74.6127 164.479 74.5986 164.493 74.5657L165.846 70.9481C165.875 70.8682 165.931 70.8259 166.011 70.8259H167.181C167.232 70.8259 167.27 70.8447 167.293 70.8776C167.317 70.9152 167.322 70.9575 167.303 71.0045L165.217 76.0504C165.207 76.0785 165.207 76.1114 165.217 76.1396L167.303 81.1526L167.317 81.2137C167.317 81.2936 167.27 81.3359 167.181 81.3359H166.025C165.945 81.3359 165.889 81.2936 165.86 81.2137L164.493 77.6102C164.484 77.582 164.47 77.5632 164.446 77.5632C164.423 77.5632 164.413 77.5773 164.399 77.6102L163.032 81.2137C163.004 81.2936 162.948 81.3359 162.868 81.3359H161.698C161.646 81.3359 161.609 81.3171 161.585 81.2842V81.2889Z" fill="#CBC3A4"/>
<path d="M173.082 81.209L172.753 79.48C172.753 79.48 172.744 79.4471 172.73 79.433C172.716 79.4236 172.697 79.4189 172.678 79.4189H170.23C170.23 79.4189 170.193 79.4236 170.179 79.433C170.165 79.4424 170.155 79.4565 170.155 79.48L169.84 81.209C169.831 81.2982 169.775 81.3452 169.676 81.3452H168.534C168.483 81.3452 168.445 81.3311 168.422 81.2982C168.398 81.2653 168.389 81.2277 168.398 81.1761L170.634 70.9668C170.653 70.8776 170.71 70.8306 170.799 70.8306H172.133C172.232 70.8306 172.288 70.8776 172.298 70.9668L174.548 81.1761V81.2043C174.548 81.2935 174.501 81.3405 174.412 81.3405H173.242C173.153 81.3405 173.096 81.2935 173.078 81.2043L173.082 81.209ZM170.456 78.282H172.453C172.481 78.282 172.5 78.2632 172.5 78.2209L171.48 72.8884C171.48 72.8884 171.461 72.8602 171.452 72.8602C171.443 72.8602 171.433 72.8696 171.424 72.8884L170.418 78.2209C170.418 78.2632 170.432 78.282 170.465 78.282H170.456Z" fill="#CBC3A4"/>
<path d="M176.032 80.7204C175.548 80.2271 175.304 79.5788 175.304 78.7754V78.3854C175.304 78.2867 175.356 78.2351 175.455 78.2351H176.563C176.662 78.2351 176.714 78.2867 176.714 78.3854V78.7002C176.714 79.1606 176.826 79.5271 177.061 79.8043C177.292 80.0815 177.588 80.2177 177.949 80.2177C178.311 80.2177 178.607 80.0862 178.842 79.8184C179.077 79.5553 179.194 79.2076 179.194 78.7754C179.194 78.4841 179.133 78.2304 179.006 78.0095C178.88 77.7887 178.715 77.5914 178.508 77.4176C178.302 77.2437 177.968 76.9853 177.508 76.6424C176.996 76.2618 176.596 75.9376 176.305 75.6651C176.014 75.3926 175.769 75.0685 175.567 74.6879C175.365 74.3073 175.267 73.861 175.267 73.3536C175.267 72.5408 175.506 71.9018 175.985 71.4226C176.465 70.9481 177.09 70.7085 177.86 70.7085C178.631 70.7085 179.302 70.9622 179.791 71.4743C180.275 71.9864 180.519 72.6536 180.519 73.4852V73.861C180.519 73.9597 180.468 74.0114 180.369 74.0114H179.26C179.161 74.0114 179.11 73.9597 179.11 73.861V73.457C179.11 73.0059 178.997 72.6442 178.762 72.367C178.532 72.0898 178.231 71.9535 177.86 71.9535C177.508 71.9535 177.226 72.0757 177.005 72.32C176.784 72.5643 176.676 72.9073 176.676 73.3489C176.676 73.7482 176.784 74.0865 177.005 74.3637C177.226 74.6409 177.649 75.0074 178.283 75.4678C178.884 75.9188 179.335 76.2853 179.641 76.5625C179.946 76.8444 180.181 77.1498 180.345 77.488C180.51 77.8216 180.594 78.221 180.594 78.6814C180.594 79.5224 180.35 80.1942 179.857 80.7016C179.368 81.209 178.724 81.458 177.935 81.458C177.146 81.458 176.507 81.209 176.023 80.7157L176.032 80.7204Z" fill="#CBC3A4"/>
<path d="M0.0234375 0V37.4684H4.41628V4.39284H197.584V37.4684H201.977V0H0.0234375ZM197.584 99.6072H4.41628V64.9295H0.0234375V104H201.977V64.9295H197.584V99.6072Z" fill="#CBC3A4"/>
<path d="M23.1527 44.4125H22.5607V61.0959H18.1162V40.3579H27.0053L29.3779 57.0413H29.9135L32.3425 40.3579H41.2315V61.0959H36.787V44.4125H36.195L33.8224 61.0959H25.5253L23.1527 44.4125Z" fill="#CBC3A4"/>
<path d="M60.5133 50.3698L60.4428 50.3369L49.9423 47.4146V44.45H62.1483V40.3062H49.6745C47.0106 40.3062 45.6152 42.2982 45.6152 44.2668V47.0199C45.6152 47.828 45.6152 50.2946 48.1946 51.3705L48.2603 51.3987L58.5072 54.2082V56.9896H46.1085V61.1334H58.8032C60.8187 61.1334 62.8624 59.7897 62.8624 57.2245V54.5935C62.8624 53.7149 62.8624 51.3846 60.518 50.3698H60.5133Z" fill="#CBC3A4"/>
<path d="M86.1514 41.8142C85.2963 40.8464 84.1029 40.3108 82.7921 40.3108H71.0653C68.2041 40.3108 66.4893 42.6881 66.4893 44.9808V56.4633C66.4893 58.7607 68.1994 61.1333 71.0653 61.1333H82.7921C84.1076 61.1333 85.301 60.5977 86.1514 59.6299C86.9078 58.7701 87.34 57.6144 87.34 56.4633V44.9808C87.34 43.8251 86.9078 42.6693 86.1514 41.8142ZM83.0458 56.9895H70.7928V44.4546H83.0458V56.9895Z" fill="#CBC3A4"/>
<path d="M89.416 40.3108V44.5862H97.5158V60.8139H102.139V44.5862H109.999V40.3108H89.416Z" fill="#CBC3A4"/>
</g>
<defs>
<clipPath id="clip0_7010_1043">
<rect width="201.953" height="104" fill="#CBC3A4" transform="translate(0.0234375)"/>
</clipPath>
</defs>
</svg>
