<?xml version="1.0" encoding="UTF-8"?>
<svg xmlns="http://www.w3.org/2000/svg" version="1.1" viewBox="0 0 349.48 326.26">
  <defs>
    <style>
      .cls-1 {
        fill: #fff;
      }
    </style>
  </defs>
  <!-- Generator: Adobe Illustrator 28.7.1, SVG Export Plug-In . SVG Version: 1.2.0 Build 142)  -->
  <g>
    <g id="Layer_1">
      <g>
        <g>
          <path class="cls-1" d="M315.31,216.51c3.59-.26,10.68-3.95,15.98-8,5.3-4.05,13.79-15.57,13.79-15.57-4.08-.29-12.26,4.2-17.82,7.36s-9.48,8.68-11.09,9.76c-1.61,1.09-3.68,1.55-3.68,1.55l-.73.34c3.72-9.09,6.54-18.63,8.38-28.49.88-.75,2.37-1.86,4.35-2.72,3.3-1.44,8.95-7.15,12.42-12.85,5.96-9.78,9.15-20.21,9.15-20.21-4.2,1.73-11.44,9.02-15.28,14.13-4.08,5.44-7.23,10.21-7.62,12.55-.19,1.18-1.3,2.69-2.12,3.69.83-5.64,1.33-11.38,1.49-17.2.8-.68,1.85-1.45,3.13-2.13,3.17-1.69,7.88-8.23,10.9-14.18,5.18-10.22,5.85-21.54,5.85-21.54-3.63,2.75-8.94,10.33-12.37,15.73-3.65,5.74-6.24,11.35-7.06,12.76-.15.27-.31.61-.45.98-.12-4.32-.44-8.59-.93-12.81.68-.63,1.53-1.31,2.53-1.94,3.04-1.91,7.26-8.78,9.84-14.93,4.43-10.56,4.28-21.91,4.28-21.91-3.42,3.01-8.28,10.08-11.31,15.71-3.22,5.99-4.63,12.22-4.99,14.55-.13.83-.6,2-1.08,3.05-.51-3.27-1.13-6.5-1.85-9.69.39-.75,1.06-1.97,2.24-3.7,2.02-2.97,5.15-10.52,6.59-17.04,2.47-11.18.3-22.32.3-22.32-2.83,3.57-6.35,11.4-8.33,17.47-2.1,6.47-2.37,12.85-2.32,15.21.02.74-.17,1.77-.41,2.77-1.21-4.26-2.6-8.45-4.18-12.55.63-.45,1.36-1.77,2.38-3.46,1.86-3.08,3.13-10.69,3.24-17.36.19-11.45-4.16-21.93-4.16-21.93-2.06,4.06-3.63,11.51-4.2,18.52-.53,6.51.05,12.72-.96,15.46-1.69-3.67-3.52-7.27-5.5-10.77.14-.83.65-3.15,2.1-5.62,1.82-3.1,2.4-11.14,1.85-17.79-.94-11.42-6.3-21.41-6.3-21.41-1.65,4.25-2.7,12.76-2.79,19.15-.1,6.8.12,10.85.87,13.08.62,1.84.52,5.51.52,5.51l2.12,4.23c-2.82-4.75-5.9-9.33-9.22-13.74.29-1.4.81-3.9.97-4.76.64-3.54,1.18-9.85-.32-17.12-2.31-11.22-7.97-20.85-7.97-20.85-1.31,4.36-1.68,12.94-1.27,19.31.44,6.78,2.21,11.45,3.13,13.62.57,1.34.53,2.87.48,3.56-3.62-4.3-7.48-8.41-11.56-12.3l2.9,2.36s.29-3.35.28-4.55c-.03-3.47.88-7.81-1.67-14.31-3.93-10.01-12.05-19.46-12.05-19.46-.42,4.4-.14,11.12,2.12,18.42,1.9,6.17,3.88,10.25,5.06,12.07.75,1.16.97,2.66,1.03,3.29-3.16-2.88-6.43-5.64-9.83-8.26h.14s-.14-.15-.23-.91c-.12-1.01,0-7.47-2.38-15.59-3.26-11.12-15.78-22.71-15.78-22.71,0,0,1.43,13.65,5.44,21.63,3.53,7.01,9.46,15.42,10.85,17.35v.06s.06.04.09.06c.14.19.21.29.21.29l-.75-.12s-2.04-1.87-11.28-2.49c-13.15-.88-22.01.72-22.01.72,0,0,10.2,6.24,22.45,8.51,10.68,1.98,15.83-.16,18.44-1.01,3.8,3.37,7.45,6.9,10.92,10.6l-2.33-1.61s-3.16-.6-8.4-1.81c-12.99-3.02-20.07-2.7-20.07-2.7,0,0,7.57,6.99,19.44,11.48,10.77,4.08,16.04,3.17,18.6,2.94,3.9,4.8,7.51,9.82,10.78,15.04l-.97-1.18s-2.88-1.43-7.59-4.03c-11.67-6.44-18.58-8.06-18.58-8.06,0,0,5.18,8.75,15.18,16.56,8.21,6.42,15.69,8.26,18.84,8.98,2.21,4.45,4.17,9.01,5.88,13.68-.52-.44-2.84-2.42-6.32-5.6-9.84-8.99-15.85-12.38-15.85-12.38,0,0,1.73,10.17,10.49,20.38,7.94,9.25,13.36,11.34,15.93,11.75,1.26,5.28,2.19,10.68,2.74,16.16-.74-.32-2.07-1.48-4.35-5.04-8.44-13.15-14.46-17.27-14.46-17.27,0,0-.27,10.31,6.35,22.03,5.82,10.29,10.54,14.82,13.01,16.7-.01.39-.02.79-.04,1.18-.23,5.28-.67,10.4-1.3,15.4-.58-.8-1.35-2.4-2.25-5.61-4.21-15.04-8.76-20.75-8.76-20.75,0,0-1.93,9.09.35,22.35,2.42,14.12,6.48,18.06,8.09,19.09-.84,3.84-1.81,7.59-2.9,11.24-.24-1.37-.53-3.25-.88-5.84-2.09-15.48-5.81-21.76-5.81-21.76,0,0-3.17,8.74-2.75,22.18.38,12.14,2.93,17.19,4.59,19.21-1.52,3.72-3.18,7.32-4.97,10.81,0-1.41-.02-3.27-.05-5.69-.17-12.56-2.46-22.57-2.46-22.57,0,0-5.3,11.26-6.78,21.3-1.1,7.46.71,16.25,1.64,20.03-2.16,3.25-4.44,6.37-6.84,9.39-.5-.91-.66-3.25.25-8.56,2.12-12.38-.76-21.4-.76-21.4,0,0-6.59,10.95-8.33,19.29-1.38,6.62-.38,16.71.09,20.6-3.28,3.37-6.73,6.57-10.35,9.59,1.01-3.42,2.48-8.38,3.13-10.59,1.05-3.56,3.9-18.57,3.9-18.57,0,0-9.51,7.13-13.29,18.1-2.84,8.23-3.62,15.6-3.83,18.77-3.79,2.64-7.73,5.12-11.8,7.43.42-.97,2.77-6.26,5.51-10.46,3.03-4.64,6.54-15.55,6.18-15.74,0,0-1.51.4-2.63,1.27-2.18,1.68-11.79,9.59-16.14,17.58-3.58,6.58-4.94,11.62-5.12,13.62-6.14,2.83-12.53,5.34-19.13,7.51l5.44-5.93h0c.84-.7,1.67-1.46,2.5-2.27,8.1-7.9,12.01-19.02,12.01-19.02,0,0-12.4,6.25-18.18,12.51-5.78,6.26-10.84,17.45-10.84,17.45l8.56,5.55c-.1.03-.15.04-.15.04,0,0,7.39,6.06,18.54,8.82,11.15,2.77,22.84.19,22.84.19,0,0-8.17-5.96-16.66-7.6-3.23-.62-7.64-1.78-12.54-2.26-2.18-.21-.06-1.53.21-2.06,2.21-.88,4.39-1.81,6.54-2.79h-.02s11.67,6.02,18.42,6.32c6.74.3,25.12-2.07,25.12-2.07-2.44-1.77-8.52-4.85-18.94-6.11-5.73-.69-10.99-.22-14.09-.74-1.38-.23-1.68-1.04-1.67-1.73,4.55-2.42,8.97-5.06,13.23-7.9-2.26,1.76-4.17,3.36-4.17,3.36,0,0,6.13,4.19,17.57,3.18,11.44-1.01,24.49-8.11,24.49-8.11,0,0-13.02-1.76-22.18-1.45-3.7.13-7.29,2.44-11.36,2.19-1.26-.08,2.8-4,1.86-3.53,0,0-.01,0-.02,0,2.25-1.66,4.45-3.38,6.61-5.16,0,0,11.73,2.9,18.08.63,6.36-2.27,22.49-11.4,22.49-11.4-2.93-.72-9.79-1.85-19.91.92-4.62,1.26-6.5,1.77-9.18,2.48-1.71.46-2-.39-1.9-1.27,2.4-2.35,4.73-4.78,6.97-7.28,3.24.04,13.96-.13,23.28-3.73,6.3-2.43,16.95-12.63,16.95-12.63-3.03.18-9.51.29-19.33,3.99-4.59,1.73-8.39,3.78-11.33,4.78-1.59.54-1.8-.69-1.57-2.13,1.87-2.48,3.66-5.01,5.38-7.6,3.38-.51,13.73-2.39,22.28-7.24,5.87-3.33,14.91-14.99,14.91-14.99-2.97.62-9.37,1.68-18.54,6.79-6.38,3.55-11.68,6.83-14.32,8.5,2.66-4.54,5.08-9.23,7.25-14.05,1.17.02,3.25.02,5.57-.15ZM262.49,39.39h.14s.04.02.06.03l-.19-.03Z"/>
          <path class="cls-1" d="M322.59,190.26c-.77,1.78-4.11,3.87-4.11,3.87l-2.09,4.81s2.4-1.58,5.95-2.17c3.55-.6,10.27-4.93,15.17-9.45,4.9-4.53,11.97-17.42,11.97-17.42-4.28,1.19-11.51,5.96-16.75,9.61-5.24,3.66-9.19,8.57-10.14,10.75Z"/>
          <path class="cls-1" d="M264.32,39.19h-.02s.02,0,.02,0Z"/>
        </g>
        <g>
          <path class="cls-1" d="M39.74,216.73c2.17,4.82,4.59,9.51,7.25,14.05-2.64-1.67-7.95-4.95-14.32-8.5-9.17-5.1-15.56-6.16-18.54-6.79,0,0,9.04,11.65,14.91,14.99,8.55,4.85,18.9,6.73,22.28,7.24,1.71,2.59,3.51,5.12,5.38,7.6.23,1.44.03,2.67-1.57,2.13-2.95-1-6.75-3.05-11.33-4.78-9.82-3.7-16.3-3.81-19.33-3.99,0,0,10.66,10.2,16.95,12.63,9.32,3.6,20.04,3.77,23.28,3.73,2.24,2.5,4.57,4.93,6.97,7.28.1.88-.19,1.73-1.9,1.27-2.68-.71-4.55-1.22-9.18-2.48-10.12-2.77-16.98-1.63-19.91-.92,0,0,16.13,9.13,22.49,11.4,6.36,2.27,18.08-.63,18.08-.63,2.15,1.78,4.36,3.5,6.61,5.16,0,0-.01,0-.02,0-.94-.47,3.11,3.46,1.86,3.53-4.07.24-7.67-2.07-11.36-2.19-9.16-.32-22.18,1.45-22.18,1.45,0,0,13.05,7.1,24.49,8.11,11.44,1.01,17.57-3.18,17.57-3.18,0,0-1.91-1.59-4.17-3.36,4.26,2.84,8.68,5.48,13.23,7.9.01.69-.29,1.5-1.67,1.73-3.11.52-8.37.05-14.09.74-10.42,1.26-16.5,4.34-18.94,6.11,0,0,18.38,2.37,25.12,2.07,6.74-.3,18.42-6.3,18.42-6.3h-.02c2.15.96,4.34,1.89,6.54,2.77.27.53,2.39,1.85.21,2.06-4.9.48-9.31,1.64-12.54,2.26-8.49,1.63-16.66,7.6-16.66,7.6,0,0,11.69,2.57,22.84-.19,11.15-2.77,18.54-8.82,18.54-8.82,0,0-.06-.02-.15-.04l8.56-5.55s-5.06-11.19-10.84-17.45c-5.78-6.26-18.18-12.51-18.18-12.51,0,0,3.91,11.13,12.01,19.02.83.81,1.67,1.56,2.5,2.27h0s5.44,5.93,5.44,5.93c-6.6-2.17-12.99-4.67-19.13-7.51-.19-2.01-1.54-7.04-5.12-13.62-4.35-7.99-13.96-15.9-16.14-17.58-1.13-.87-2.63-1.27-2.63-1.27-.36.19,3.15,11.1,6.18,15.74,2.75,4.2,5.09,9.49,5.51,10.46-4.07-2.31-8-4.79-11.8-7.43-.21-3.17-.99-10.54-3.83-18.77-3.78-10.97-13.29-18.1-13.29-18.1,0,0,2.86,15.01,3.9,18.57.65,2.22,2.12,7.17,3.13,10.59-3.61-3.02-7.07-6.22-10.35-9.59.47-3.88,1.47-13.98.09-20.6-1.74-8.34-8.33-19.29-8.33-19.29,0,0-2.88,9.02-.76,21.4.91,5.31.76,7.65.25,8.56-2.4-3.01-4.69-6.14-6.84-9.39.93-3.78,2.74-12.57,1.64-20.03-1.49-10.04-6.78-21.3-6.78-21.3,0,0-2.29,10.01-2.46,22.57-.03,2.42-.05,4.27-.05,5.69-1.79-3.49-3.45-7.1-4.97-10.81,1.65-2.02,4.21-7.07,4.59-19.21.42-13.45-2.75-22.18-2.75-22.18,0,0-3.72,6.28-5.81,21.76-.35,2.59-.64,4.47-.88,5.84-1.09-3.65-2.06-7.4-2.9-11.24,1.61-1.03,5.67-4.97,8.09-19.09,2.27-13.26.35-22.35.35-22.35,0,0-4.55,5.71-8.76,20.75-.9,3.2-1.67,4.81-2.25,5.61-.63-4.99-1.07-10.12-1.3-15.4-.02-.39-.03-.79-.04-1.18,2.47-1.87,7.19-6.41,13.01-16.7,6.62-11.71,6.35-22.03,6.35-22.03,0,0-6.02,4.12-14.46,17.27-2.28,3.55-3.61,4.71-4.35,5.04.56-5.48,1.48-10.87,2.74-16.16,2.58-.41,7.99-2.49,15.93-11.75,8.76-10.21,10.49-20.38,10.49-20.38,0,0-6.01,3.39-15.85,12.38-3.48,3.18-5.8,5.16-6.32,5.6,1.7-4.67,3.67-9.23,5.88-13.68,3.15-.72,10.63-2.56,18.84-8.98,10-7.81,15.18-16.56,15.18-16.56,0,0-6.9,1.62-18.58,8.06-4.71,2.6-7.59,4.03-7.59,4.03l-.97,1.18c3.27-5.22,6.88-10.24,10.78-15.04,2.56.23,7.83,1.15,18.6-2.94,11.86-4.5,19.44-11.48,19.44-11.48,0,0-7.08-.32-20.07,2.7-5.24,1.22-8.4,1.81-8.4,1.81l-2.33,1.61c3.47-3.7,7.11-7.24,10.92-10.6,2.6.85,7.75,2.99,18.44,1.01,12.25-2.27,22.45-8.51,22.45-8.51,0,0-8.86-1.6-22.01-.72-9.24.62-11.28,2.49-11.28,2.49l-.75.12s.08-.11.21-.29c.03-.02.05-.04.08-.06v-.06c1.4-1.93,7.33-10.34,10.86-17.35C102.14,13.73,103.58.08,103.58.08c0,0-12.51,11.59-15.78,22.71-2.38,8.13-2.26,14.58-2.38,15.59-.09.76-.19.88-.23.89h.14c-3.4,2.64-6.68,5.39-9.83,8.27.06-.63.28-2.13,1.03-3.29,1.18-1.83,3.16-5.91,5.06-12.07,2.26-7.31,2.54-14.03,2.12-18.42,0,0-8.12,9.45-12.05,19.46-2.55,6.49-1.63,10.84-1.67,14.31-.01,1.2.28,4.55.28,4.55l2.9-2.36c-4.08,3.89-7.94,7.99-11.56,12.3-.05-.69-.09-2.22.48-3.56.92-2.17,2.69-6.83,3.13-13.62.41-6.38.04-14.95-1.27-19.31,0,0-5.66,9.63-7.97,20.85-1.5,7.28-.95,13.59-.32,17.12.15.86.68,3.36.97,4.76-3.32,4.4-6.4,8.99-9.22,13.74l2.12-4.23s-.1-3.67.52-5.51c.75-2.23.96-6.28.87-13.08-.09-6.39-1.14-14.91-2.79-19.15,0,0-5.36,10-6.3,21.41-.55,6.65.03,14.69,1.85,17.79,1.45,2.48,1.95,4.79,2.1,5.62-1.98,3.51-3.81,7.1-5.5,10.77-1.01-2.74-.43-8.95-.96-15.46-.58-7.01-2.15-14.46-4.2-18.52,0,0-4.35,10.48-4.16,21.93.11,6.67,1.37,14.29,3.24,17.36,1.03,1.69,1.75,3.01,2.38,3.46-1.57,4.1-2.97,8.29-4.18,12.55-.24-1-.43-2.03-.41-2.77.05-2.36-.22-8.74-2.32-15.21-1.98-6.08-5.5-13.9-8.33-17.47,0,0-2.17,11.13.3,22.32,1.44,6.51,4.57,14.06,6.59,17.04,1.18,1.73,1.85,2.95,2.24,3.7-.72,3.19-1.35,6.42-1.85,9.69-.49-1.06-.95-2.22-1.08-3.05-.37-2.33-1.77-8.56-4.99-14.55-3.03-5.63-7.89-12.7-11.31-15.71,0,0-.15,11.34,4.28,21.91,2.58,6.15,6.8,13.02,9.84,14.93,1,.63,1.85,1.31,2.53,1.94-.49,4.22-.81,8.49-.93,12.81-.15-.37-.3-.71-.45-.98-.81-1.41-3.41-7.02-7.06-12.76-3.43-5.39-8.74-12.97-12.37-15.73,0,0,.67,11.32,5.85,21.54,3.02,5.95,7.72,12.49,10.9,14.18,1.28.68,2.33,1.45,3.13,2.13.16,5.82.66,11.56,1.49,17.2-.82-1-1.93-2.52-2.12-3.69-.39-2.34-3.54-7.11-7.62-12.55-3.83-5.11-11.08-12.4-15.28-14.13,0,0,3.19,10.43,9.15,20.21,3.47,5.7,9.12,11.41,12.42,12.85,1.99.87,3.48,1.98,4.35,2.72,1.83,9.87,4.66,19.4,8.38,28.49l-.73-.34s-2.06-.46-3.68-1.55c-1.61-1.09-5.53-6.61-11.09-9.76-5.56-3.15-13.73-7.65-17.82-7.36,0,0,8.49,11.52,13.79,15.57,5.3,4.05,12.39,7.74,15.98,8,2.32.17,4.39.17,5.57.15ZM86.79,39.5s.04-.03.06-.05h.14s-.19.05-.19.05Z"/>
          <path class="cls-1" d="M26.89,190.34c.77,1.78,4.11,3.87,4.11,3.87l2.09,4.81s-2.4-1.58-5.95-2.17c-3.55-.6-10.27-4.93-15.17-9.45-4.9-4.53-11.97-17.42-11.97-17.42,4.28,1.19,11.51,5.96,16.75,9.61,5.24,3.66,9.19,8.57,10.14,10.75Z"/>
          <path class="cls-1" d="M85.16,39.27h.02s-.02,0-.02,0Z"/>
        </g>
        <polygon class="cls-1" points="149.12 251.63 153.78 250.04 151.26 254.27 154.21 258.22 149.41 257.13 146.57 261.16 146.12 256.25 141.41 254.8 145.94 252.85 145.87 247.93 149.12 251.63"/>
        <polygon class="cls-1" points="202.12 253.09 206.6 255.13 201.87 256.49 201.32 261.38 198.56 257.31 193.74 258.3 196.77 254.41 194.33 250.13 198.96 251.81 202.28 248.17 202.12 253.09"/>
        <g>
          <path class="cls-1" d="M95.63,163.53c.92,2.54,3.51,7.41,7.8,7.41,2.28,0,4.03-1.49,4.03-4.34,0-2.59-1.67-4.12-4.38-5.26l-.66-.31c-3.64-1.62-7.67-3.95-7.67-8.64,0-4.95,3.6-8.99,10.48-8.99,1.36,0,2.76.18,4.03.53,1.01.26,1.71.44,2.28.61.18,1.71.48,3.86.96,6.84l-1.93.31c-.96-2.89-2.5-6.01-5.96-6.01-2.24,0-3.81,1.71-3.81,3.81s1.67,3.51,4.52,4.74l.96.44c4.03,1.8,7.5,4.08,7.5,9.21,0,5.39-4.34,9.34-11.14,9.34-1.75,0-3.55-.35-4.74-.75-1.32-.44-2.24-.79-2.76-1.05-.35-2.02-.92-4.38-1.45-7.32l1.93-.57Z"/>
          <path class="cls-1" d="M128.91,144.06c5.39,0,9.87,1.05,12.8,3.9,2.06,1.97,3.77,5.22,3.77,8.99,0,10.92-8.29,15.61-18.42,15.61h-11.31v-1.71c3.2-.26,3.55-.57,3.55-5.31v-14.47c0-4.74-.35-5.04-3.2-5.31v-1.71h12.8ZM126.76,165.59c0,3.9.96,4.65,3.07,4.65,3.77,0,7.59-4.16,7.59-11.93,0-9.43-4.78-12.06-8.51-12.06-1.01,0-1.58.13-1.89.31-.22.09-.26,1.1-.26,2.19v16.84Z"/>
          <path class="cls-1" d="M158.72,172.87c-3.03-7.89-7.15-18.72-8.73-22.84-1.45-3.77-2.32-3.99-4.43-4.25v-1.71h14.16v1.71l-1.49.18c-1.62.22-1.62.57-1.14,2.1.79,2.46,4.25,11.09,5.88,15.39,1.36-3.73,4.17-12.1,4.87-14.16.92-2.67.66-3.16-1.32-3.38l-1.32-.13v-1.71h10.61v1.71c-2.5.31-3.11.53-4.82,4.52-.26.61-5.61,13.64-8.9,22.58h-3.38Z"/>
          <path class="cls-1" d="M203.45,157.96c0,9.38-6.4,15.26-14.82,15.26-8.86,0-14.6-6.45-14.6-14.51,0-7.1,4.74-15.3,15.21-15.3,8.02,0,14.21,5.88,14.21,14.56ZM182.18,157.22c0,7.94,2.98,13.72,7.28,13.72,3.77,0,5.83-3.64,5.83-11.58,0-8.81-3.16-13.68-6.93-13.68-3.38,0-6.18,3.86-6.18,11.53Z"/>
          <path class="cls-1" d="M207.84,163.53c.92,2.54,3.51,7.41,7.8,7.41,2.28,0,4.03-1.49,4.03-4.34,0-2.59-1.67-4.12-4.38-5.26l-.66-.31c-3.64-1.62-7.67-3.95-7.67-8.64,0-4.95,3.6-8.99,10.48-8.99,1.36,0,2.76.18,4.03.53,1.01.26,1.71.44,2.28.61.18,1.71.48,3.86.96,6.84l-1.93.31c-.97-2.89-2.5-6.01-5.96-6.01-2.24,0-3.81,1.71-3.81,3.81s1.67,3.51,4.52,4.74l.96.44c4.03,1.8,7.5,4.08,7.5,9.21,0,5.39-4.34,9.34-11.14,9.34-1.75,0-3.55-.35-4.74-.75-1.31-.44-2.24-.79-2.76-1.05-.35-2.02-.92-4.38-1.45-7.32l1.93-.57Z"/>
          <path class="cls-1" d="M231.51,151.08c0-4.74-.35-5.04-3.16-5.31v-1.71h13.68c6.18,0,9.82,1.8,9.82,6.49,0,3.81-3.64,5.83-6.14,6.14v.09c4.21.48,7.76,2.81,7.76,7.41,0,3.2-1.58,5.26-3.95,6.66-2.1,1.23-5.17,1.71-8.81,1.71h-12.63v-1.71c3.07-.26,3.42-.57,3.42-5.31v-14.47ZM238.53,156.3h1.4c2.54,0,4.47-1.62,4.47-5.13,0-3.86-2.32-4.91-3.9-4.91-1.1,0-1.58.13-1.71.26-.22.13-.26,1.05-.26,2.24v7.54ZM238.53,165.68c0,3.95.96,4.74,2.59,4.69,1.75,0,4.43-1.45,4.43-5.74s-2.68-6.31-5.74-6.31h-1.27v7.37Z"/>
        </g>
        <g>
          <path class="cls-1" d="M130.99,250.27l-1.92-.85c.32-.78.45-1.5.39-2.14-.06-.65-.34-1.3-.85-1.96s-1.18-1.22-2.02-1.68c-.74-.41-1.46-.66-2.15-.75-.69-.09-1.28-.02-1.77.21-.49.23-.86.57-1.11,1.03-.25.46-.34.94-.27,1.43s.36,1.02.84,1.6c.31.37,1.05,1.09,2.22,2.16,1.17,1.07,1.95,1.9,2.33,2.48.5.76.77,1.5.81,2.23.04.73-.12,1.44-.49,2.11-.41.74-1,1.32-1.78,1.73-.78.41-1.66.56-2.65.45-.99-.11-1.98-.44-2.97-.99-1.09-.6-1.95-1.31-2.59-2.12-.64-.81-.99-1.68-1.07-2.61s.11-1.83.56-2.71l1.94.89c-.41.98-.46,1.87-.14,2.67.32.79,1.04,1.5,2.17,2.13,1.18.65,2.15.91,2.93.77.78-.13,1.33-.51,1.67-1.11.29-.53.34-1.07.15-1.62-.19-.55-.97-1.44-2.35-2.67s-2.3-2.14-2.74-2.73c-.64-.87-.99-1.71-1.07-2.54-.07-.83.11-1.64.54-2.43.43-.78,1.06-1.4,1.89-1.84.83-.44,1.77-.63,2.82-.55,1.05.08,2.1.41,3.15.99,1.33.73,2.34,1.54,3.02,2.43.69.88,1.07,1.86,1.15,2.92.08,1.06-.14,2.09-.65,3.09Z"/>
          <path class="cls-1" d="M110.45,235.37l-1.53-1.51c1.02-.78,2.11-1.17,3.24-1.16,1.14,0,2.27.44,3.39,1.3,1.41,1.08,2.2,2.38,2.36,3.88.16,1.5-.36,3.04-1.57,4.61-1.25,1.62-2.63,2.56-4.15,2.82-1.52.25-2.95-.13-4.28-1.15-1.29-.99-2.01-2.24-2.15-3.74-.14-1.51.4-3.05,1.62-4.65.07-.1.19-.24.34-.43l7.19,5.52c.75-1.11,1.08-2.15.97-3.12s-.56-1.77-1.37-2.39c-.6-.46-1.23-.7-1.9-.71-.67-.01-1.39.23-2.17.73ZM113.79,242.13l-5.39-4.13c-.55.87-.81,1.63-.78,2.3.04,1.03.47,1.86,1.3,2.5.75.58,1.58.81,2.47.7.9-.11,1.7-.56,2.4-1.36Z"/>
          <path class="cls-1" d="M109,228.89l-8.43,8.76-1.34-1.29,1.28-1.33c-.94.29-1.65.4-2.13.32-.48-.08-.89-.29-1.24-.62-.5-.48-.86-1.13-1.07-1.95l1.84-.89c.16.56.42,1.02.78,1.37.32.31.71.49,1.16.55.45.05.89-.04,1.33-.28.67-.37,1.31-.87,1.91-1.49l4.41-4.59,1.49,1.43Z"/>
          <path class="cls-1" d="M100.93,220.53l-6.32,11.37-1.4-1.66,3.89-6.69c.42-.72.88-1.45,1.37-2.17-.61.27-1.36.57-2.26.9l-7.42,2.72-1.37-1.62,12.27-4.32,1.24,1.47Z"/>
          <path class="cls-1" d="M83.66,221.82l-1.95,1.36-1.18-1.69,1.95-1.35,1.18,1.69ZM95.49,213.58l-9.98,6.95-1.18-1.69,9.98-6.95,1.18,1.69Z"/>
          <path class="cls-1" d="M84.46,204.2l-.77-1.89c1.32-.5,2.56-.54,3.69-.14,1.14.4,2.03,1.18,2.69,2.34.82,1.45,1.01,2.88.56,4.3-.45,1.42-1.55,2.63-3.32,3.63-1.14.65-2.25,1.02-3.32,1.13-1.07.11-2.04-.1-2.91-.64-.87-.53-1.56-1.25-2.07-2.16-.65-1.15-.89-2.25-.73-3.31.17-1.06.73-2,1.68-2.81l1.26,1.59c-.62.57-.98,1.17-1.1,1.79-.12.63,0,1.24.33,1.83.51.9,1.25,1.45,2.22,1.65s2.15-.1,3.55-.9c1.42-.81,2.3-1.66,2.63-2.57s.25-1.8-.24-2.68c-.4-.7-.95-1.17-1.65-1.4-.7-.23-1.53-.15-2.5.23Z"/>
          <path class="cls-1" d="M79.72,192.09l-.55-2.07c1.28-.16,2.41.06,3.39.65.98.58,1.73,1.53,2.26,2.84.67,1.65.69,3.16.06,4.54-.63,1.38-1.85,2.44-3.69,3.18-1.9.77-3.57.87-5.01.32-1.44-.55-2.48-1.61-3.11-3.17-.61-1.51-.59-2.95.05-4.32.64-1.37,1.89-2.43,3.75-3.18.11-.05.28-.11.51-.2l3.4,8.41c1.21-.57,2.02-1.3,2.42-2.2.4-.9.42-1.81.03-2.76-.28-.7-.71-1.22-1.28-1.57-.57-.35-1.31-.5-2.24-.47ZM79.16,199.61l-2.54-6.3c-.91.47-1.53,1-1.84,1.58-.49.91-.54,1.84-.15,2.81.35.88.95,1.5,1.78,1.86s1.75.37,2.76.04Z"/>
          <path class="cls-1" d="M79.73,178.9l-16.59,2.55-.88-5.72c-.2-1.29-.27-2.29-.22-2.99.07-.98.34-1.86.81-2.62.6-.99,1.45-1.79,2.53-2.4,1.08-.61,2.37-1.03,3.84-1.26,1.26-.19,2.4-.22,3.42-.07,1.02.14,1.88.4,2.59.76.71.36,1.29.79,1.74,1.28.45.49.83,1.11,1.14,1.85.31.74.54,1.62.69,2.62l.92,5.99ZM77.43,177.01l-.54-3.54c-.17-1.09-.4-1.94-.7-2.53-.3-.59-.66-1.04-1.09-1.36-.6-.44-1.36-.74-2.29-.89-.92-.15-2.01-.14-3.26.06-1.74.27-3.02.76-3.87,1.47s-1.36,1.5-1.55,2.36c-.14.62-.1,1.59.1,2.89l.54,3.49,12.68-1.95Z"/>
          <path class="cls-1" d="M63.28,162.49l-2.37.08-.07-2.06,2.37-.08.07,2.06ZM77.68,161.98l-12.15.43-.07-2.06,12.15-.43.07,2.06Z"/>
          <path class="cls-1" d="M73.83,156.93l-.21-2.05c.82-.07,1.46-.35,1.93-.85.46-.5.72-1.22.77-2.15.05-.95-.1-1.66-.46-2.14s-.8-.73-1.32-.76c-.46-.03-.84.16-1.13.54-.2.27-.47.96-.81,2.06-.47,1.49-.85,2.52-1.16,3.08s-.72.99-1.23,1.26c-.51.27-1.06.39-1.65.36-.54-.03-1.04-.18-1.48-.46-.45-.27-.81-.63-1.09-1.08-.22-.33-.39-.78-.53-1.34-.13-.56-.18-1.16-.15-1.79.05-.95.24-1.78.55-2.49.31-.71.72-1.22,1.2-1.53.49-.32,1.13-.52,1.92-.6l.16,2.03c-.63.06-1.13.29-1.51.71-.38.42-.58,1.03-.63,1.83-.05.95.07,1.63.36,2.05.29.42.64.64,1.06.67.27.01.51-.06.73-.21.23-.16.43-.41.59-.76.09-.2.3-.8.63-1.79.47-1.43.85-2.43,1.12-2.99.28-.56.67-.99,1.16-1.29.49-.3,1.09-.43,1.79-.39.69.04,1.32.27,1.9.71.58.43,1.02,1.04,1.31,1.81.29.77.41,1.64.35,2.59-.09,1.58-.48,2.76-1.18,3.55s-1.7,1.26-3,1.42Z"/>
          <path class="cls-1" d="M78.35,136.2c.5.87.81,1.68.94,2.42.13.74.12,1.51-.03,2.31-.25,1.31-.76,2.26-1.53,2.84-.77.58-1.66.78-2.66.59-.59-.11-1.09-.34-1.53-.7-.43-.36-.76-.78-.97-1.27-.21-.49-.34-1.01-.39-1.58-.03-.42-.02-1.04.04-1.86.11-1.67.11-2.92-.01-3.74-.28-.06-.45-.1-.53-.11-.83-.16-1.44-.07-1.85.24-.56.43-.93,1.16-1.12,2.18-.18.95-.15,1.69.1,2.2.25.52.78.96,1.58,1.34l-.64,1.93c-.81-.34-1.44-.77-1.89-1.28-.44-.51-.73-1.18-.87-2.02-.13-.83-.1-1.76.09-2.79.19-1.02.47-1.83.83-2.42.36-.59.75-1,1.17-1.24.42-.23.92-.35,1.5-.37.36,0,.99.08,1.89.25l2.7.51c1.88.36,3.08.54,3.6.55.52,0,1.03-.07,1.53-.24l-.4,2.12c-.46.13-.98.17-1.55.13ZM73.8,135.51c.16.79.21,1.94.14,3.45-.04.86-.01,1.47.07,1.84.08.37.25.68.51.92.25.24.56.4.91.46.54.1,1.03-.02,1.47-.36s.73-.9.88-1.69c.15-.78.11-1.51-.12-2.18s-.61-1.21-1.15-1.6c-.42-.3-1.07-.54-1.96-.71l-.74-.14Z"/>
          <path class="cls-1" d="M81.67,129.43l-.61,1.81-15.91-5.37.66-1.95,5.67,1.92c-.76-1.17-.92-2.4-.49-3.68.24-.71.61-1.33,1.11-1.87.5-.54,1.08-.92,1.73-1.16.65-.23,1.39-.34,2.2-.33.81.01,1.63.16,2.46.44,1.97.67,3.34,1.67,4.08,3.01.75,1.34.89,2.69.43,4.06-.46,1.36-1.39,2.24-2.78,2.63l1.44.49ZM75.81,127.48c1.38.47,2.44.62,3.18.45,1.21-.28,2-.94,2.35-1.99.29-.85.17-1.72-.37-2.59-.53-.87-1.53-1.56-3-2.05-1.5-.51-2.72-.58-3.63-.23-.92.35-1.52.96-1.8,1.8-.29.85-.17,1.72.36,2.59.53.87,1.5,1.55,2.9,2.02Z"/>
          <path class="cls-1" d="M85.7,118.63l-15.29-6.92.85-1.88,15.29,6.92-.85,1.88Z"/>
          <path class="cls-1" d="M88.81,104.25l1.29-1.71c.91.91,1.43,1.94,1.57,3.07.14,1.13-.14,2.31-.85,3.53-.89,1.54-2.07,2.49-3.54,2.84-1.47.35-3.06.04-4.77-.95-1.77-1.02-2.88-2.27-3.33-3.75-.45-1.48-.26-2.94.58-4.4.81-1.41,1.96-2.28,3.43-2.62,1.47-.34,3.08,0,4.82,1,.11.06.26.16.47.28l-4.54,7.85c1.19.6,2.27.79,3.22.55.95-.23,1.69-.79,2.19-1.67.38-.65.53-1.31.45-1.97-.08-.66-.41-1.35-1.01-2.05ZM82.54,108.44l3.4-5.88c-.93-.43-1.73-.59-2.38-.48-1.02.17-1.79.71-2.31,1.61-.47.82-.6,1.67-.37,2.54.23.88.78,1.61,1.66,2.2Z"/>
          <path class="cls-1" d="M99.76,95.77l-1.21-.94c.48,1.35.26,2.61-.66,3.79-.6.76-1.35,1.3-2.28,1.62-.92.31-1.9.35-2.93.11s-2.04-.74-3.02-1.5c-.96-.75-1.7-1.58-2.23-2.51-.53-.93-.76-1.87-.67-2.83.08-.96.43-1.84,1.04-2.63.45-.58.97-1,1.57-1.26.6-.26,1.2-.38,1.81-.36l-4.75-3.7,1.26-1.62,13.24,10.32-1.17,1.51ZM90.97,97.18c1.23.96,2.35,1.41,3.36,1.37,1.01-.04,1.79-.42,2.34-1.12.55-.71.73-1.54.54-2.49-.19-.95-.89-1.89-2.08-2.82-1.31-1.02-2.47-1.52-3.48-1.49s-1.8.41-2.38,1.15c-.56.72-.74,1.56-.53,2.5.21.94.95,1.91,2.22,2.9Z"/>
          <path class="cls-1" d="M112.12,83.37l-15.67-8.86,1.86-1.52,11.1,6.67c.89.53,1.7,1.06,2.42,1.57-.38-.87-.73-1.77-1.04-2.7l-4.22-12.31,1.75-1.44,5.56,17.15-1.76,1.44Z"/>
          <path class="cls-1" d="M124.73,69.79l1.95-.89c.36,1.24.34,2.39-.08,3.45-.42,1.06-1.23,1.96-2.43,2.7-1.52.93-3.01,1.2-4.47.81-1.46-.39-2.71-1.43-3.74-3.12-1.07-1.74-1.45-3.37-1.14-4.89.31-1.51,1.18-2.71,2.61-3.59,1.39-.85,2.81-1.07,4.27-.66,1.46.41,2.71,1.47,3.76,3.18.06.1.16.26.28.47l-7.74,4.73c.76,1.1,1.62,1.77,2.57,2.03.95.25,1.86.11,2.72-.42.64-.39,1.09-.9,1.34-1.52.25-.62.28-1.38.09-2.28ZM117.22,70.48l5.79-3.54c-.61-.82-1.23-1.34-1.87-1.56-.97-.33-1.91-.23-2.8.32-.81.49-1.32,1.18-1.54,2.06s-.08,1.79.41,2.73Z"/>
          <path class="cls-1" d="M134.62,67.16l1.05,1.52c-.47.36-.91.64-1.33.83-.68.32-1.25.46-1.72.43-.47-.04-.87-.19-1.19-.47-.32-.28-.74-.97-1.27-2.09l-3-6.32-1.37.65-.69-1.45,1.37-.65-1.29-2.72,1.32-2,1.82,3.84,1.87-.89.69,1.45-1.87.89,3.05,6.42c.25.53.45.86.58.98.14.12.3.19.49.21s.42-.04.7-.17c.21-.1.47-.25.78-.46Z"/>
          <path class="cls-1" d="M144.17,61.34l2.1-.46c.1,1.29-.17,2.4-.8,3.35-.63.95-1.61,1.66-2.94,2.13-1.68.59-3.19.54-4.54-.15-1.35-.69-2.35-1.97-3-3.83-.68-1.93-.71-3.6-.09-5.02.62-1.41,1.72-2.4,3.31-2.96,1.53-.54,2.97-.46,4.31.25,1.34.7,2.34,2,3.01,3.9.04.12.1.29.17.52l-8.56,3c.51,1.24,1.21,2.08,2.09,2.52.88.44,1.79.5,2.75.16.71-.25,1.26-.65,1.63-1.2.37-.55.56-1.29.57-2.21ZM136.68,60.44l6.41-2.25c-.43-.93-.92-1.57-1.5-1.91-.88-.53-1.82-.62-2.8-.28-.89.31-1.54.88-1.94,1.69-.4.81-.46,1.73-.17,2.75Z"/>
          <path class="cls-1" d="M150.37,63.68l-2.71-11.85,1.81-.41.41,1.8c.27-.95.57-1.6.9-1.96.33-.36.73-.59,1.2-.7.68-.15,1.41-.1,2.21.17l-.27,2.02c-.56-.18-1.08-.21-1.57-.1-.44.1-.8.32-1.09.67s-.45.77-.5,1.27c-.06.77,0,1.57.2,2.42l1.42,6.21-2.01.46Z"/>
          <path class="cls-1" d="M166.12,59.5c-.69.73-1.36,1.27-2.04,1.61-.67.35-1.41.56-2.21.65-1.33.15-2.38-.06-3.17-.63s-1.24-1.36-1.35-2.36c-.07-.59,0-1.15.22-1.67s.52-.95.92-1.3c.4-.35.87-.62,1.4-.84.39-.15.99-.32,1.79-.51,1.63-.38,2.82-.76,3.57-1.12-.02-.28-.04-.46-.05-.54-.09-.83-.35-1.4-.78-1.7-.58-.4-1.38-.55-2.41-.43-.96.11-1.66.36-2.08.75-.42.39-.69,1.03-.82,1.91l-2.03-.05c.08-.88.31-1.6.66-2.18s.91-1.05,1.67-1.42c.76-.37,1.65-.62,2.69-.74,1.03-.12,1.88-.09,2.56.08.67.17,1.18.42,1.53.75.34.33.61.77.79,1.32.11.34.21.97.32,1.88l.31,2.73c.22,1.9.4,3.1.54,3.6.14.49.37.96.68,1.39l-2.14.24c-.26-.4-.45-.88-.58-1.44ZM165.43,54.95c-.71.39-1.79.77-3.26,1.15-.83.22-1.41.42-1.74.61s-.58.44-.73.76c-.16.31-.21.65-.17,1.01.06.55.32.98.77,1.3.45.32,1.08.43,1.88.34.79-.09,1.47-.34,2.05-.76.58-.41.97-.94,1.19-1.57.17-.49.2-1.18.1-2.09l-.09-.75Z"/>
          <path class="cls-1" d="M171.68,60.62l.28-12.16,1.85.04-.04,1.73c.92-1.31,2.23-1.95,3.92-1.91.73.02,1.4.16,2.01.44.61.28,1.06.63,1.36,1.07s.5.95.61,1.54c.07.38.09,1.05.07,2.01l-.17,7.48-2.06-.05.17-7.4c.02-.84-.05-1.47-.2-1.89-.15-.42-.43-.76-.83-1.02-.4-.26-.88-.39-1.43-.41-.88-.02-1.64.24-2.29.78-.65.54-.99,1.59-1.03,3.15l-.15,6.64-2.06-.05Z"/>
          <path class="cls-1" d="M193.65,53.99c.72-2.69,2-4.61,3.85-5.75,1.85-1.14,3.92-1.41,6.21-.8,1.5.4,2.75,1.11,3.77,2.15,1.01,1.04,1.66,2.28,1.95,3.72.29,1.45.22,2.98-.21,4.61-.44,1.65-1.16,3.03-2.17,4.15-1.01,1.12-2.21,1.86-3.61,2.2-1.39.34-2.8.33-4.21-.04-1.53-.41-2.79-1.14-3.8-2.19-1.01-1.06-1.65-2.31-1.93-3.75-.28-1.44-.23-2.87.15-4.3ZM195.86,54.61c-.52,1.96-.4,3.63.35,5.04.75,1.4,1.92,2.32,3.51,2.74,1.62.43,3.1.21,4.44-.64,1.35-.86,2.3-2.33,2.85-4.42.35-1.32.43-2.53.25-3.64-.19-1.1-.63-2.04-1.35-2.81-.72-.77-1.61-1.3-2.68-1.58-1.52-.4-2.97-.23-4.34.52-1.37.75-2.38,2.35-3.03,4.79Z"/>
          <path class="cls-1" d="M211.63,68.02l1.86-12.58,1.92.91-1.27,7.17-.47,2.67c.08-.1.63-.77,1.65-1.99l4.81-5.6,1.91.91-1.38,7.15-.45,2.36,1.64-1.82,4.9-5.46,1.81.86-8.65,9.35-1.93-.92,1.38-7.41.47-2.07-6.24,7.39-1.94-.92Z"/>
          <path class="cls-1" d="M224.91,74.79l6.88-10.03,1.53,1.05-.98,1.43c1.49-.6,2.93-.42,4.33.54.6.41,1.09.9,1.44,1.47.36.56.54,1.11.55,1.63.01.53-.1,1.06-.33,1.62-.15.36-.5.93-1.04,1.72l-4.23,6.17-1.7-1.17,4.18-6.1c.47-.69.76-1.26.87-1.69s.06-.87-.14-1.3-.52-.81-.98-1.12c-.72-.5-1.51-.69-2.35-.6s-1.7.79-2.58,2.08l-3.75,5.48-1.7-1.17Z"/>
          <path class="cls-1" d="M244.58,85.23l1.4,1.63c-1.09.69-2.2.99-3.33.89s-2.22-.63-3.27-1.58c-1.32-1.2-1.99-2.55-2.02-4.06-.03-1.51.61-3,1.94-4.46,1.38-1.51,2.83-2.33,4.37-2.46,1.54-.13,2.93.37,4.17,1.5,1.2,1.09,1.81,2.4,1.83,3.91.02,1.51-.65,3.01-2,4.5-.08.09-.21.22-.38.4l-6.71-6.1c-.84,1.04-1.25,2.05-1.23,3.03.02.98.41,1.82,1.16,2.5.56.51,1.17.8,1.83.86.66.07,1.4-.12,2.22-.55ZM241.81,78.21l5.02,4.57c.62-.82.94-1.56.97-2.23.05-1.03-.31-1.9-1.09-2.6-.7-.64-1.5-.94-2.41-.9-.9.03-1.74.42-2.5,1.16Z"/>
          <path class="cls-1" d="M250.55,97.73l1.18-.98c-1.42.18-2.61-.3-3.57-1.45-.62-.74-.99-1.6-1.1-2.57-.11-.97.06-1.93.51-2.89.45-.96,1.15-1.83,2.11-2.63.93-.78,1.91-1.33,2.93-1.65,1.02-.32,1.99-.34,2.91-.06.92.28,1.7.81,2.35,1.58.47.56.77,1.16.9,1.8s.12,1.25-.03,1.85l4.62-3.86,1.31,1.57-12.89,10.76-1.23-1.47ZM251.04,88.84c-1.2,1-1.88,2-2.05,2.99s.03,1.84.6,2.53c.58.69,1.35,1.04,2.32,1.05.97.01,2.03-.47,3.19-1.44,1.28-1.07,2.01-2.1,2.2-3.09.19-.99-.02-1.85-.62-2.57-.59-.7-1.37-1.05-2.33-1.04-.97,0-2.07.53-3.31,1.56Z"/>
          <path class="cls-1" d="M262.32,105.03l1.12,1.78c-.7.47-1.21.99-1.52,1.56s-.45,1.27-.39,2.1c.05.83.29,1.67.73,2.52.39.75.84,1.36,1.36,1.83.52.46,1.05.74,1.58.82s1.03,0,1.5-.23c.47-.24.81-.58,1.02-1.04.21-.45.28-1.05.19-1.8-.05-.48-.26-1.49-.63-3.03-.37-1.54-.55-2.66-.54-3.36,0-.9.2-1.67.58-2.31.37-.63.91-1.13,1.59-1.48.75-.39,1.57-.53,2.44-.44.87.09,1.69.46,2.45,1.11s1.4,1.48,1.91,2.48c.57,1.11.89,2.18.96,3.21.08,1.03-.12,1.95-.58,2.76-.46.81-1.12,1.46-1.98,1.94l-1.11-1.82c.89-.58,1.43-1.29,1.61-2.13.18-.83-.02-1.83-.61-2.98-.61-1.2-1.28-1.96-1.99-2.28s-1.39-.33-2.01-.01c-.54.27-.88.69-1.03,1.26-.15.56,0,1.73.46,3.53.46,1.79.7,3.06.74,3.8.04,1.08-.14,1.98-.54,2.71s-1.01,1.3-1.81,1.71c-.8.41-1.66.56-2.6.47-.94-.1-1.82-.47-2.65-1.12-.83-.65-1.51-1.51-2.06-2.58-.69-1.35-1.07-2.59-1.15-3.7s.15-2.14.68-3.06,1.28-1.66,2.27-2.19Z"/>
          <path class="cls-1" d="M264.82,122.02l11.66-3.46.52,1.77-1.64.49c.68.2,1.28.55,1.81,1.05.53.5.91,1.14,1.14,1.92.26.86.29,1.62.09,2.28s-.58,1.2-1.16,1.62c1.63.52,2.67,1.52,3.11,2.99.34,1.16.29,2.14-.17,2.95s-1.35,1.42-2.68,1.81l-8,2.38-.58-1.96,7.34-2.18c.79-.23,1.34-.47,1.65-.7.31-.23.52-.55.63-.95.11-.4.1-.83-.03-1.28-.24-.82-.72-1.42-1.42-1.8s-1.66-.39-2.86-.03l-6.77,2.01-.59-1.98,7.57-2.25c.88-.26,1.49-.62,1.83-1.07s.41-1.04.19-1.78c-.17-.56-.46-1.03-.9-1.41-.43-.39-.96-.6-1.59-.65-.63-.05-1.47.09-2.53.4l-6.05,1.8-.59-1.98Z"/>
          <path class="cls-1" d="M272.31,148.76c-.73-.68-1.28-1.36-1.62-2.03-.35-.67-.57-1.41-.67-2.21-.16-1.33.05-2.38.61-3.17.56-.79,1.35-1.24,2.36-1.36.59-.07,1.15,0,1.67.21s.95.52,1.3.92c.35.4.63.87.84,1.39.15.39.33.98.52,1.78.39,1.63.77,2.82,1.14,3.57.28-.03.46-.04.54-.05.83-.1,1.4-.36,1.69-.79.4-.58.54-1.38.42-2.41-.11-.96-.37-1.65-.76-2.07-.39-.42-1.03-.69-1.91-.81l.04-2.03c.88.08,1.61.3,2.18.65.58.35,1.05.91,1.43,1.66.38.75.63,1.65.75,2.69.12,1.03.1,1.88-.07,2.56-.17.67-.42,1.18-.75,1.53-.33.35-.77.61-1.32.8-.34.11-.97.22-1.88.33l-2.73.32c-1.9.23-3.1.41-3.59.56-.49.15-.96.38-1.39.69l-.25-2.14c.4-.26.88-.46,1.44-.59ZM276.86,148.05c-.39-.71-.78-1.79-1.17-3.25-.22-.83-.43-1.41-.62-1.74s-.45-.57-.76-.73-.65-.21-1.01-.17c-.55.06-.98.32-1.29.78-.31.46-.42,1.08-.33,1.88.09.79.35,1.47.77,2.04.42.57.94.97,1.58,1.19.49.17,1.18.19,2.09.09l.75-.09Z"/>
          <path class="cls-1" d="M271.1,154.43l16.78-.33.04,2.06-16.78.33-.04-2.06Z"/>
          <path class="cls-1" d="M271.11,160.26l16.77.66-.08,2.06-16.77-.66.08-2.06Z"/>
          <path class="cls-1" d="M270.09,173.1l16.37,3.72-1.4,6.14c-.28,1.25-.68,2.22-1.18,2.9s-1.15,1.16-1.93,1.43c-.79.27-1.55.32-2.31.15-.7-.16-1.32-.5-1.85-1.02-.53-.52-.9-1.21-1.1-2.06-.52.92-1.18,1.57-2,1.95s-1.71.45-2.66.23c-.77-.17-1.44-.5-2.03-.97-.59-.47-1-.99-1.25-1.55-.25-.56-.38-1.22-.4-1.98-.02-.76.09-1.66.33-2.7l1.42-6.24ZM271.53,175.7l-.93,4.08c-.16.7-.24,1.2-.26,1.49-.02.52.03.97.16,1.35s.37.73.72,1.03.78.52,1.31.64c.61.14,1.18.1,1.7-.11.52-.21.94-.57,1.24-1.09.31-.51.58-1.29.82-2.33l.86-3.79-5.63-1.28ZM279.08,177.42l-.81,3.54c-.22.96-.31,1.66-.28,2.11.04.59.22,1.06.53,1.43.32.37.76.61,1.33.74.54.12,1.05.1,1.52-.06.47-.17.84-.47,1.1-.92s.53-1.26.8-2.44l.74-3.27-4.95-1.13Z"/>
          <path class="cls-1" d="M263.33,195.76l1.66.66c-.93-1.38-1.1-2.83-.5-4.35.26-.67.64-1.24,1.12-1.72.48-.48.97-.78,1.47-.91.5-.13,1.05-.14,1.66-.03.41.07,1.02.27,1.84.59l7.01,2.76-.76,1.92-6.27-2.47c-1-.4-1.69-.62-2.07-.68-.55-.08-1.05.02-1.49.3s-.78.7-1,1.28-.29,1.17-.2,1.79c.1.62.36,1.14.78,1.55s1.12.81,2.09,1.19l6.06,2.39-.76,1.92-11.31-4.46.68-1.72Z"/>
          <path class="cls-1" d="M264.68,201.7l-.71,1.94c-.77-.3-1.47-.32-2.11-.08s-1.18.78-1.64,1.6c-.46.83-.63,1.53-.52,2.12s.4,1.01.85,1.26c.41.23.83.23,1.26,0,.3-.16.84-.66,1.63-1.5,1.07-1.14,1.87-1.89,2.39-2.27.53-.37,1.08-.57,1.66-.6.58-.02,1.13.11,1.65.4.47.26.85.62,1.13,1.06.28.44.45.92.51,1.45.05.4.01.87-.11,1.44s-.34,1.12-.65,1.68c-.46.83-.99,1.5-1.58,2-.59.5-1.17.78-1.75.85-.58.07-1.24-.03-1.99-.29l.74-1.9c.59.22,1.15.23,1.67.02.52-.21.97-.67,1.36-1.37.46-.83.65-1.49.57-2-.08-.51-.3-.86-.67-1.06-.23-.13-.48-.17-.75-.13-.28.04-.56.18-.86.42-.17.14-.62.59-1.34,1.34-1.05,1.09-1.82,1.82-2.32,2.2-.5.38-1.03.6-1.61.66-.57.06-1.17-.09-1.78-.43-.6-.33-1.07-.82-1.4-1.47-.34-.65-.47-1.38-.39-2.2s.35-1.65.81-2.48c.77-1.38,1.64-2.27,2.62-2.68.98-.4,2.08-.39,3.32.03Z"/>
          <path class="cls-1" d="M254.9,211.18l10.04,6.86-1.16,1.7-10.04-6.86,1.16-1.7ZM266.8,219.32l1.96,1.34-1.16,1.7-1.96-1.34,1.16-1.7Z"/>
          <path class="cls-1" d="M251.73,215.85l9.32,7.82-1.19,1.42-1.32-1.11c.45,1.54.13,2.96-.95,4.25-.47.56-1.01.99-1.6,1.29s-1.16.43-1.68.39c-.52-.04-1.05-.2-1.58-.49-.34-.19-.88-.59-1.61-1.2l-5.73-4.81,1.33-1.58,5.67,4.76c.64.54,1.18.88,1.6,1.03.42.15.86.14,1.31-.01s.86-.44,1.21-.86c.56-.67.84-1.43.82-2.28-.02-.85-.62-1.77-1.82-2.77l-5.09-4.27,1.33-1.58Z"/>
          <path class="cls-1" d="M239.43,234.41l-1.76,1.23c-.59-1.15-.77-2.28-.56-3.4s.84-2.15,1.89-3.1c1.32-1.19,2.73-1.73,4.24-1.62,1.51.11,2.93.9,4.25,2.37,1.37,1.52,2.05,3.05,2.02,4.59-.02,1.54-.66,2.88-1.9,4.01-1.21,1.09-2.56,1.57-4.07,1.44-1.51-.13-2.93-.94-4.28-2.43-.08-.09-.2-.23-.36-.41l6.72-6.09c-.95-.94-1.92-1.44-2.9-1.51-.98-.07-1.85.24-2.6.92-.56.51-.91,1.09-1.04,1.74s-.02,1.41.33,2.26ZM246.69,232.34l-5.03,4.56c.75.7,1.46,1.09,2.12,1.18,1.02.15,1.92-.13,2.69-.83.7-.64,1.08-1.4,1.13-2.31.05-.9-.25-1.77-.91-2.6Z"/>
          <path class="cls-1" d="M235.64,237.2l-1.49,1.42c-.56-.61-1.18-.94-1.85-1s-1.4.18-2.18.71c-.78.54-1.25,1.1-1.4,1.67-.16.58-.09,1.08.21,1.51.26.38.64.57,1.12.56.34,0,1.05-.22,2.13-.62,1.46-.55,2.51-.87,3.15-.97.64-.1,1.22-.04,1.75.2.53.23.96.59,1.3,1.08.31.45.49.93.55,1.45s0,1.03-.18,1.52c-.13.38-.37.79-.74,1.24s-.8.85-1.32,1.22c-.79.54-1.55.91-2.3,1.09-.75.18-1.4.18-1.95-.01s-1.1-.57-1.66-1.15l1.5-1.37c.43.46.93.71,1.49.75.56.04,1.17-.17,1.83-.63.78-.54,1.25-1.05,1.4-1.54.15-.49.11-.9-.13-1.25-.15-.22-.36-.37-.62-.45-.26-.09-.58-.09-.96,0-.21.05-.81.26-1.8.6-1.42.51-2.44.83-3.05.95-.62.12-1.19.08-1.73-.12-.54-.2-1.01-.59-1.41-1.17-.39-.56-.59-1.21-.61-1.94-.02-.73.19-1.44.63-2.15.43-.7,1.04-1.33,1.83-1.87,1.3-.9,2.48-1.31,3.53-1.24,1.05.07,2.04.57,2.97,1.5Z"/>
          <path class="cls-1" d="M225.25,244.22l-1.66,1.23c-.48-.67-1.05-1.08-1.72-1.22s-1.41,0-2.25.43c-.84.44-1.37.93-1.6,1.49s-.22,1.06.02,1.52c.22.41.56.64,1.05.69.34.03,1.07-.09,2.19-.35,1.52-.36,2.6-.55,3.25-.57.65-.02,1.22.11,1.71.41.49.3.88.71,1.15,1.24.25.48.37.98.37,1.51,0,.52-.13,1.02-.37,1.49-.17.36-.47.74-.88,1.14-.41.4-.9.75-1.47,1.04-.85.44-1.65.71-2.42.8-.77.09-1.41,0-1.93-.25s-1.02-.71-1.5-1.34l1.66-1.17c.37.51.83.82,1.38.93.55.11,1.18-.02,1.89-.39.84-.44,1.37-.89,1.58-1.35.21-.47.22-.88.03-1.26-.12-.24-.31-.41-.56-.52-.25-.12-.57-.16-.95-.12-.22.03-.84.15-1.86.37-1.47.33-2.52.52-3.15.56-.63.05-1.19-.06-1.7-.33-.51-.27-.93-.71-1.25-1.34-.32-.61-.44-1.28-.36-2s.37-1.41.89-2.05c.52-.64,1.2-1.19,2.04-1.63,1.4-.73,2.62-1,3.66-.8,1.04.2,1.96.82,2.76,1.86Z"/>
        </g>
        <path class="cls-1" d="M154.54,317.7l5.44,1.64c-.37,1.52-.94,2.8-1.73,3.82-.79,1.02-1.76,1.79-2.92,2.31-1.16.52-2.65.78-4.44.78-2.18,0-3.96-.32-5.35-.95-1.38-.63-2.58-1.75-3.58-3.35-1-1.6-1.51-3.64-1.51-6.13,0-3.32.88-5.87,2.65-7.66,1.77-1.78,4.27-2.68,7.5-2.68,2.53,0,4.52.51,5.96,1.53,1.45,1.02,2.52,2.59,3.22,4.71l-5.48,1.22c-.19-.61-.39-1.06-.6-1.34-.35-.47-.77-.84-1.27-1.1-.5-.26-1.06-.38-1.68-.38-1.41,0-2.48.57-3.23,1.7-.57.84-.85,2.16-.85,3.95,0,2.22.34,3.75,1.01,4.57.68.83,1.62,1.24,2.85,1.24s2.08-.33,2.69-1c.61-.67,1.05-1.63,1.32-2.9Z"/>
        <path class="cls-1" d="M189.98,305.84h16.62v4.29h-10.41v3.19h9.65v4.09h-9.65v3.96h10.71v4.55h-16.92v-20.07Z"/>
        <path class="cls-1" d="M156.71,292.86h10.67l7.43,23.77,7.34-23.77h10.36l-12.26,33.03h-11.06l-12.47-33.03Z"/>
      </g>
    </g>
  </g>
</svg>