<svg width="57" height="37" viewBox="0 0 57 37" fill="none" xmlns="http://www.w3.org/2000/svg">
<g id="np_usa-flag_6336707_000000 2" opacity="0.5">
<g clip-path="url(#clip0_6979_3112)">
<g id="Group">
<path id="Vector" d="M0.452148 32.5827C0.617066 32.5627 0.779759 32.5203 0.924617 32.4802L0.452148 32.5827Z" fill="white"/>
<path id="Vector_2" d="M1.05012 32.6652H0.927547V32.5002C0.782683 32.5404 0.619996 32.5827 0.455078 32.6028V35.6627H56.1732C56.2133 34.6554 56.1531 33.6703 56.1732 32.6652L1.05012 32.6652Z" fill="white"/>
<path id="Vector_3" d="M1.08954 30.0776H56.1704C56.1904 29.2152 56.1704 28.3727 56.1704 27.5103H1.08954H0.924617H0.452148V30.0776H0.924617H1.08954Z" fill="white"/>
<path id="Vector_4" d="M0.924861 24.903H1.08978H28.6915H56.1706V22.3557H1.06753H0.90261C0.90261 22.3557 0.595059 22.3758 0.450195 22.3557V24.8808C0.617344 24.9031 0.924861 24.903 0.924861 24.903Z" fill="white"/>
<path id="Vector_5" d="M0.90534 19.7683H1.11038C17.9525 19.7683 34.7917 19.7683 51.6338 19.7482H56.1735C56.1535 18.9058 56.1936 18.0634 56.1735 17.2009H26.147V14.5934H56.1735C56.1535 13.751 56.1936 12.9086 56.1735 12.0684H26.1071V9.46086H56.1735V6.89346H26.1071V4.30599H56.1735C56.1735 3.29866 56.1535 2.29355 56.1735 1.28616L0.453125 1.28394V19.7481C0.597989 19.7681 0.90534 19.7683 0.90534 19.7683ZM3.26768 18.3509C3.3078 18.4957 3.35014 18.6183 3.4326 18.8434C3.18522 18.6785 3.02253 18.5559 2.81751 18.411C2.63253 18.5559 2.44756 18.6584 2.20242 18.8434C2.26483 18.6384 2.28488 18.4935 2.34728 18.391C2.42974 18.1859 2.3874 18.0834 2.20242 17.9586C2.07985 17.8962 1.99738 17.7937 1.91492 17.6711C2.07984 17.6711 2.20242 17.6511 2.36734 17.6711C2.55232 17.6912 2.61472 17.631 2.65484 17.4661C2.67489 17.3212 2.73729 17.1986 2.81975 16.9736C2.88216 17.1385 2.90221 17.1986 2.94233 17.2611C3.08719 17.6511 3.08719 17.6511 3.49726 17.6511H3.72235C3.72235 17.6711 3.74241 17.6912 3.74241 17.7135C3.61984 17.7959 3.51732 17.8984 3.37245 17.9608C3.22759 18.0433 3.20528 18.1659 3.26768 18.3509ZM3.28774 14.531C3.22534 14.716 3.3702 14.941 3.45266 15.2085C3.22757 15.0436 3.04259 14.941 2.85759 14.7984C2.67262 14.9433 2.48764 15.0458 2.30266 15.1884H2.2202C2.5701 14.6959 2.42524 14.3259 1.93271 14.141L1.91265 14.0585C2.38512 14.0986 2.7551 14.0184 2.7551 13.381C2.77515 13.4011 2.79521 13.4011 2.83755 13.4211C2.87767 13.566 2.96013 13.6886 3.00247 13.8535C3.04259 14.0184 3.12504 14.0786 3.28997 14.0585C3.43483 14.0385 3.57747 14.0585 3.74238 14.0585C3.74238 14.0786 3.76244 14.0986 3.76244 14.1209C3.61758 14.2636 3.33009 14.3661 3.28774 14.531ZM5.38268 16.5033C5.44508 16.6482 5.46514 16.7908 5.52754 16.9357C5.50748 16.9357 5.50748 16.9557 5.48743 16.9557C5.30245 16.8109 5.11747 16.7083 4.93249 16.5657C4.74751 16.7106 4.56254 16.8131 4.3174 16.9981C4.37981 16.793 4.39986 16.6281 4.46227 16.5055C4.52467 16.3406 4.50238 16.2381 4.33969 16.1356C4.21712 16.0732 4.1146 15.9707 3.9898 15.8882C4.00985 15.8481 4.00985 15.8481 4.02991 15.8481C4.50238 15.9105 4.87236 15.7857 4.87236 15.1706C4.89242 15.1906 4.91247 15.1906 4.95482 15.2107C4.99493 15.3556 5.07739 15.4781 5.09968 15.643C5.1398 15.808 5.22226 15.8681 5.36712 15.8481C5.53204 15.828 5.67467 15.8481 5.81953 15.8481C5.81953 15.8681 5.83959 15.8882 5.83959 15.9105C5.71702 15.9929 5.59221 16.0955 5.46964 16.1779C5.36266 16.2559 5.30021 16.3384 5.38268 16.5033ZM7.66258 18.781H7.58012C7.39514 18.6361 7.21016 18.5336 7.02519 18.391C6.84021 18.5358 6.65523 18.6584 6.43012 18.8233C6.49252 18.5559 6.63515 18.3107 6.57499 18.1257C6.53487 17.9608 6.26744 17.8583 6.10252 17.7157C6.12257 17.6956 6.12257 17.6756 6.12257 17.6756C6.34767 17.6555 6.59504 17.7157 6.75997 17.6131C6.90484 17.5307 6.92489 17.2432 7.00735 16.9757C7.04747 17.1206 7.12992 17.2008 7.12992 17.2833C7.17004 17.5708 7.33496 17.7357 7.64251 17.6733C7.72497 17.6533 7.82749 17.6733 7.90995 17.6733C7.93001 17.6934 7.95006 17.7134 7.97235 17.7357C7.45753 17.9185 7.35505 18.2684 7.66258 18.781ZM7.66258 14.3058C7.45754 14.4507 7.4152 14.5733 7.49766 14.7583C7.53778 14.8808 7.56007 15.0056 7.62023 15.1282C7.60018 15.1483 7.60018 15.1483 7.58012 15.1683C7.39514 15.0458 7.21016 14.921 7.02519 14.7783C6.84021 14.9232 6.65523 15.0257 6.47025 15.1683H6.38779C6.73769 14.6758 6.59283 14.3059 6.08024 14.1008C6.12036 14.0607 6.14265 14.0384 6.1627 14.0384C6.65523 14.1008 6.98507 13.976 6.98507 13.3609C7.00512 13.381 7.02518 13.381 7.06752 13.401C7.10764 13.5459 7.1901 13.6685 7.23244 13.8111C7.27256 13.976 7.35502 14.0362 7.51994 14.0161C7.6648 13.9961 7.80744 14.0161 7.99241 14.0562C7.88766 14.1409 7.80744 14.2434 7.66258 14.3058ZM9.61266 16.5233C9.67506 16.6682 9.69512 16.7908 9.75752 16.9557C9.73746 16.9757 9.73746 16.9757 9.71741 16.9958C9.53243 16.8509 9.34745 16.7484 9.16247 16.6058C8.97749 16.7507 8.79252 16.8532 8.54738 17.0381C8.60979 16.8331 8.62984 16.6682 8.7123 16.5657C8.79476 16.3807 8.75241 16.2782 8.56744 16.1757C8.44486 16.1133 8.34234 16.0107 8.21754 15.9283C8.2376 15.9082 8.25766 15.8882 8.25766 15.8882C8.46269 15.8681 8.73013 15.9082 8.89505 15.8258C9.03992 15.7433 9.05997 15.4558 9.16249 15.2508C9.2026 15.3956 9.24495 15.5182 9.30735 15.6609C9.34747 15.8258 9.42993 15.8859 9.59485 15.8659C9.73971 15.8458 9.88235 15.8659 10.0673 15.906C9.94475 15.9885 9.84223 16.111 9.69737 16.1734C9.57257 16.2559 9.55248 16.3384 9.61266 16.5233ZM9.81992 12.5185C9.57254 12.6411 9.55248 12.806 9.655 13.0311C9.69512 13.1135 9.71741 13.2361 9.77757 13.4211C9.5302 13.2562 9.36751 13.1336 9.16249 12.9887C8.97751 13.1336 8.79253 13.2361 8.60755 13.3787C8.58749 13.3386 8.56744 13.3163 8.58749 13.3163C8.79253 12.9063 8.79253 12.5363 8.3 12.3312C8.27994 12.3312 8.27994 12.2911 8.23759 12.1864C8.81257 12.3513 9.10006 12.1463 9.12015 11.549C9.14021 11.549 9.16026 11.569 9.18255 11.569C9.22267 11.7139 9.30513 11.8164 9.32742 11.9791C9.36753 12.1641 9.47228 12.2265 9.67731 12.2042C9.82218 12.1842 9.94475 12.2042 10.1097 12.2443C10.0049 12.3736 9.92244 12.4561 9.81992 12.5185ZM11.7499 14.736C11.8123 14.8808 11.8324 15.0034 11.9148 15.2285C11.6675 15.0435 11.4825 14.941 11.2997 14.7961C11.1148 14.941 10.9298 15.0435 10.6847 15.2285C10.7471 14.9611 10.9097 14.7159 10.8496 14.551C10.8095 14.366 10.5621 14.2635 10.3771 14.1186V14.0785C10.6022 14.0585 10.8696 14.1186 11.0145 14.0161C11.1594 13.9337 11.1794 13.6261 11.302 13.4411C11.3421 13.586 11.3845 13.7086 11.4469 13.8512C11.487 14.0161 11.5694 14.0763 11.7344 14.0763C11.8792 14.0562 12.0219 14.0763 12.2068 14.1164C12.0843 14.1989 11.9817 14.3214 11.8369 14.3838C11.7076 14.4685 11.6674 14.551 11.7499 14.736ZM14.1323 16.0509C13.7824 16.2982 13.7824 16.2982 13.9273 16.7485C13.9474 16.8109 13.9674 16.8933 13.9897 17.0159C13.7646 16.851 13.5796 16.7284 13.3746 16.5835C13.1896 16.7284 13.0047 16.851 12.8197 16.9736H12.7372C13.0871 16.481 12.9623 16.1111 12.4497 15.906C12.4698 15.8659 12.4698 15.8436 12.4698 15.8436C12.9423 15.8837 13.3323 15.8236 13.2922 15.146C13.3122 15.1661 13.3546 15.1862 13.3746 15.2084C13.3947 15.2708 13.437 15.3533 13.4571 15.4335C13.6019 15.8436 13.6019 15.8436 14.0321 15.8436C14.0945 15.8436 14.197 15.8436 14.3195 15.8637C14.2549 15.9684 14.1925 16.0085 14.1323 16.0509ZM16.1448 17.9185C15.9397 18.0633 15.8974 18.1658 15.9799 18.3709C16.02 18.4934 16.0423 18.6182 16.1247 18.8233C15.8773 18.6584 15.6924 18.5358 15.5096 18.3909C15.3247 18.5358 15.1397 18.6383 14.9146 18.8233C14.977 18.5558 15.1196 18.3107 15.0594 18.1257C15.0193 17.9407 14.7519 17.8583 14.587 17.7156V17.6332C15.1419 17.778 15.4494 17.6131 15.4695 16.9958C15.4896 16.9958 15.5096 17.0158 15.5319 17.0158C15.572 17.1607 15.6545 17.2833 15.6968 17.4259C15.7369 17.5908 15.8194 17.651 15.9843 17.6309C16.1292 17.6109 16.2718 17.6309 16.4568 17.671C16.3498 17.7557 16.2674 17.8382 16.1448 17.9185ZM16.1024 14.366C15.9375 14.4484 15.8974 14.551 15.9576 14.7159C16.02 14.8607 16.04 14.9833 16.1225 15.2084C15.8751 15.0435 15.6901 14.9209 15.5074 14.776C15.3224 14.9209 15.1374 15.0234 14.8923 15.2084C14.9547 15.0034 14.9748 14.8585 15.0372 14.7359C15.0996 14.551 15.0773 14.4484 14.9146 14.3459C14.792 14.2835 14.6895 14.181 14.5647 14.0384C14.7296 14.0384 14.8522 14.0183 15.0171 14.0384C15.2021 14.0584 15.2846 13.9983 15.3247 13.8133C15.3447 13.6684 15.4071 13.5458 15.4695 13.4233H15.5319C15.572 13.5458 15.6144 13.6283 15.6545 13.7308C15.6946 13.9782 15.8395 14.0807 16.0869 14.0384C16.2094 14.0183 16.312 14.0384 16.4568 14.0785C16.3498 14.181 16.2473 14.3058 16.1024 14.366ZM18.0748 16.5032C18.1372 16.6481 18.1572 16.7907 18.2397 17.0158C17.9923 16.8309 17.8073 16.7283 17.6246 16.5835C17.4396 16.7283 17.2546 16.8309 17.0697 16.9735C17.0496 16.9334 17.0496 16.9334 17.0496 16.9334C17.0897 16.7283 17.2346 16.481 17.1945 16.296C17.1543 16.1311 16.907 16.0285 16.6819 15.8436C16.8267 15.8436 16.907 15.8235 16.9694 15.8235C17.4017 15.8235 17.4017 15.8235 17.5644 15.3911C17.5845 15.3287 17.6046 15.2463 17.687 15.1438C17.7494 15.3488 17.8319 15.4937 17.8519 15.6162C17.892 15.7812 17.9745 15.8413 18.1194 15.8213C18.2843 15.8012 18.4269 15.8213 18.5718 15.8213C18.5718 15.8413 18.5918 15.8614 18.5918 15.8837C18.4693 15.9661 18.3445 16.0687 18.2219 16.1511C18.0547 16.2559 18.0346 16.3784 18.0748 16.5032ZM20.3747 17.9608C20.1697 18.0834 20.1496 18.2082 20.2298 18.3931C20.2699 18.5157 20.2922 18.6405 20.3747 18.8255C20.2098 18.743 20.1273 18.6606 20.0671 18.6004C19.9847 18.538 19.8822 18.4555 19.7796 18.3954C19.5947 18.5402 19.4097 18.6628 19.2247 18.7854H19.1423C19.4498 18.2928 19.3473 17.9229 18.8548 17.7179C18.8748 17.6777 18.8748 17.6777 18.8748 17.6777C19.3473 17.7179 19.7173 17.6376 19.7173 17.0002C19.7373 17.0203 19.7574 17.0203 19.7997 17.0403C19.8198 17.1027 19.8621 17.1852 19.8822 17.2654C20.027 17.6755 20.027 17.6755 20.4572 17.6755C20.5196 17.6755 20.6221 17.6755 20.7447 17.6956C20.5797 17.7959 20.4772 17.9184 20.3747 17.9608ZM20.417 14.346C20.1919 14.4284 20.1295 14.551 20.2321 14.756C20.2722 14.8786 20.2945 15.0034 20.3546 15.126C20.3346 15.146 20.3346 15.146 20.3145 15.1661C20.1295 15.0435 19.9446 14.9187 19.7596 14.7761C19.5746 14.9209 19.3896 15.0235 19.1445 15.2084C19.1846 15.0435 19.2069 14.9611 19.2269 14.9009C19.3718 14.4284 19.4119 14.551 19.0019 14.2635C18.9617 14.2234 18.8793 14.181 18.8369 14.1186V14.0785C18.8369 14.0785 18.8369 14.0585 18.857 14.0585C19.3295 14.1209 19.6994 14.0183 19.6994 13.3809C19.7195 13.401 19.7396 13.401 19.7819 13.4211C19.822 13.5659 19.9045 13.6885 19.9468 13.8534C19.9869 14.0183 20.0917 14.0785 20.2343 14.0585C20.3792 14.0384 20.5218 14.0585 20.7068 14.0986C20.6221 14.181 20.5396 14.2836 20.417 14.346ZM22.6145 16.0509C22.2646 16.2982 22.2646 16.2982 22.4095 16.7485C22.4295 16.8109 22.4496 16.8933 22.4719 17.0159C22.2468 16.851 22.0618 16.7284 21.8568 16.5835C21.6718 16.7284 21.4868 16.851 21.3018 16.9736H21.2194C21.5693 16.481 21.4445 16.1111 20.9319 15.906C20.9519 15.8659 20.9519 15.8436 20.9519 15.8436C21.4244 15.8837 21.8144 15.8236 21.7743 15.146C21.7944 15.1661 21.8367 15.1862 21.8568 15.2084C21.8768 15.2708 21.9192 15.3533 21.9392 15.4335C22.0841 15.8436 22.0841 15.8436 22.5142 15.8436C22.5766 15.8436 22.6791 15.8436 22.8017 15.8637C22.7371 15.9684 22.6546 16.0085 22.6145 16.0509ZM22.4897 13.401C22.2646 13.2361 22.0796 13.1336 21.8746 12.991C21.6896 13.1358 21.5046 13.2383 21.3197 13.381C21.2996 13.3409 21.2996 13.3409 21.2996 13.3186C21.3397 13.1135 21.4846 12.8662 21.4222 12.7035C21.3821 12.5386 21.1347 12.436 20.9497 12.3135C20.9698 12.2934 20.9898 12.2734 20.9898 12.2734C21.4824 12.3358 21.8122 12.211 21.8122 11.5959C21.8323 11.6159 21.8523 11.6159 21.8746 11.636C21.9147 11.7808 21.9972 11.9034 22.0395 12.0683C22.0796 12.2332 22.1844 12.2934 22.327 12.2734C22.4719 12.2533 22.6145 12.2734 22.7594 12.2734C22.7594 12.2934 22.7594 12.3135 22.7794 12.3358C22.6145 12.4806 22.3471 12.5831 22.307 12.7681C22.2646 12.8885 22.3872 13.1336 22.4897 13.401ZM24.462 14.6959C24.5244 14.8407 24.5445 14.9633 24.6269 15.1884C24.3796 15.0235 24.1946 14.9009 24.0118 14.7783C23.8269 14.9232 23.6419 15.0257 23.3968 15.2107C23.4592 15.0056 23.4792 14.8608 23.5416 14.7382C23.604 14.5532 23.5817 14.4507 23.419 14.3482C23.2965 14.2858 23.194 14.1833 23.0692 14.1008L23.0892 14.0607C23.5617 14.1231 23.9317 14.0206 23.9317 13.3832C23.9517 13.4033 23.9718 13.4033 24.0141 13.4233C24.0542 13.5459 24.1367 13.6707 24.159 13.7933C24.1991 14.0184 24.3239 14.0808 24.5289 14.0406C24.6738 14.0206 24.7763 14.0406 24.939 14.0808C24.8164 14.1632 24.7139 14.2858 24.569 14.3482C24.442 14.4485 24.3796 14.5309 24.462 14.6959ZM24.462 7.54881C24.5244 7.67138 24.5445 7.81625 24.5445 7.98116C24.4219 7.8987 24.2971 7.81625 24.1946 7.73379C24.0497 7.58892 23.9271 7.61121 23.7845 7.73379C23.6619 7.81625 23.5594 7.8987 23.3945 7.95888C23.4346 7.81401 23.4569 7.67138 23.5394 7.52652C23.6018 7.36161 23.5795 7.27915 23.4168 7.17663C23.2719 7.11422 23.1694 6.99165 23.0468 6.86908C23.1917 6.84902 23.3343 6.82896 23.4993 6.84902C23.6642 6.86908 23.7466 6.8089 23.7867 6.64398C23.8068 6.49912 23.8692 6.37654 23.9316 6.23391H23.994C24.0141 6.27403 24.0341 6.29632 24.0341 6.35649C24.2191 6.84901 24.2191 6.84901 24.7317 6.84901C24.7718 6.84901 24.8142 6.84901 24.9167 6.86907C24.7518 6.99164 24.6493 7.09416 24.5267 7.15657C24.4219 7.24126 24.3595 7.36383 24.462 7.54881ZM23.497 3.25647C23.682 3.27653 23.7444 3.21636 23.7845 3.05143C23.8046 2.90657 23.867 2.784 23.9494 2.57896C23.9895 2.66142 24.0118 2.70154 24.0319 2.74388C24.2369 3.23641 24.2169 3.23641 24.7718 3.25647C24.7919 3.25647 24.8342 3.25647 24.9167 3.27653C24.8342 3.33893 24.7718 3.3991 24.7116 3.44145C24.3617 3.68882 24.3617 3.68882 24.5066 4.13903C24.5267 4.17915 24.5267 4.22149 24.5467 4.30395C24.5467 4.32401 24.5467 4.32401 24.5267 4.36635C24.1367 4.01646 23.7867 3.89388 23.4168 4.42876C23.3967 4.4087 23.3967 4.36635 23.3767 4.3463C23.4168 4.20143 23.4391 4.0588 23.5216 3.91394C23.584 3.74903 23.5617 3.66657 23.399 3.56405C23.2541 3.50165 23.1516 3.37907 23.029 3.2565C23.2096 3.2565 23.3522 3.23641 23.497 3.25647ZM23.497 10.4862C23.682 10.5063 23.7645 10.4461 23.8046 10.2612C23.8246 10.1163 23.887 9.99372 23.9695 9.78869C24.0319 9.99373 24.1144 10.1586 24.1545 10.2812C24.1946 10.4461 24.2993 10.5063 24.442 10.4863C24.5868 10.4662 24.7295 10.4863 24.8743 10.4863C24.8944 10.5063 24.9144 10.5264 24.9367 10.5487C24.4241 10.7136 24.2592 11.0412 24.5868 11.556C24.5668 11.556 24.5467 11.556 24.5044 11.576C24.3194 11.4535 24.1344 11.3287 23.9494 11.2061C23.7645 11.351 23.5795 11.4535 23.3343 11.6384C23.3745 11.4735 23.3968 11.3911 23.4168 11.3309C23.5617 10.9409 23.5617 10.9409 23.1917 10.6935C23.1293 10.6534 23.0691 10.611 23.0067 10.4885C23.2095 10.4862 23.3522 10.464 23.497 10.4862ZM23.292 17.631C23.7243 17.631 23.7243 17.631 23.867 17.1987C23.887 17.1363 23.9071 17.0761 23.9294 17.0137C23.9494 16.9936 23.9695 16.9736 24.0118 16.9736C24.0118 17.611 24.3818 17.7135 24.8543 17.6511C24.8543 17.6511 24.8543 17.6711 24.8944 17.6912C24.7718 17.7736 24.6693 17.8762 24.5445 17.9386C24.3796 18.021 24.3395 18.1436 24.4219 18.3085C24.4843 18.4534 24.5044 18.576 24.5868 18.8011C24.3395 18.6161 24.1768 18.5136 23.9717 18.3687C23.7868 18.4913 23.6018 18.6161 23.4168 18.7587C23.3968 18.7587 23.3767 18.7386 23.3767 18.7386C23.4168 18.6161 23.4391 18.5136 23.4993 18.4311C23.6218 18.206 23.5617 18.021 23.3344 17.9185C23.2519 17.8784 23.1494 17.7736 22.9845 17.6711C23.1471 17.631 23.2296 17.631 23.292 17.631ZM21.382 5.04166C21.6071 5.08178 21.6896 4.97926 21.752 4.77423C21.772 4.65165 21.8344 4.52685 21.8968 4.40427C21.9369 4.42433 21.9592 4.42433 21.9592 4.42433C22.0417 4.62937 22.0818 4.87674 22.2267 4.99931C22.3715 5.08177 22.6367 5.01937 22.9042 5.01937C22.6791 5.22441 22.4117 5.32692 22.3492 5.5119C22.2668 5.67682 22.3894 5.92197 22.4718 6.12699C22.4518 6.12699 22.4317 6.14705 22.4317 6.12699C22.2467 6.00441 22.0617 5.81944 21.8768 5.81944C21.6918 5.81944 21.5068 6.02447 21.2617 6.20945C21.3241 6.00441 21.3441 5.83949 21.4266 5.71692C21.489 5.552 21.4467 5.46954 21.304 5.36702C21.1592 5.30462 21.0789 5.18204 20.9541 5.05947C21.0945 5.04164 21.2372 5.02161 21.382 5.04166ZM20.992 8.6565C21.4845 8.73895 21.8144 8.53392 21.8345 7.97899C21.8545 7.99905 21.8746 8.0191 21.8969 8.0191C21.937 8.16397 22.0194 8.28654 22.0417 8.42917C22.0818 8.61415 22.1866 8.67655 22.3493 8.65427C22.4941 8.63421 22.6167 8.65427 22.8017 8.69438C22.6791 8.77684 22.5766 8.89942 22.4317 8.96182C22.2668 9.04428 22.2467 9.16686 22.3092 9.33177C22.3493 9.47664 22.3916 9.59921 22.454 9.78419C22.2289 9.61927 22.0217 9.41423 21.8389 9.41423C21.6539 9.41423 21.469 9.63933 21.284 9.76413C21.2639 9.74407 21.2639 9.72401 21.2639 9.72401C21.469 9.2716 21.4489 8.88157 20.894 8.6966C20.972 8.67877 20.992 8.6565 20.992 8.6565ZM19.2871 3.25653C19.4721 3.27658 19.5345 3.21641 19.5746 3.05149C19.5946 2.90663 19.657 2.78405 19.7395 2.57902C19.7796 2.66148 19.8019 2.70159 19.822 2.74394C20.0069 3.23647 20.0069 3.23647 20.5619 3.25653C20.5819 3.25653 20.6243 3.25653 20.6443 3.27658C20.6644 3.29664 20.6845 3.3167 20.7067 3.3167C20.1318 3.50168 20.0292 3.87163 20.3568 4.36414H20.2744C20.1518 4.30174 20.0493 4.21928 19.9668 4.13905C19.8019 3.97413 19.6793 3.99418 19.5144 4.13905C19.432 4.22151 19.3094 4.30397 19.1244 4.40648C19.1868 4.18139 19.2069 4.03653 19.2893 3.91396C19.3517 3.74904 19.3294 3.66658 19.1668 3.56406C19.0219 3.50166 18.9194 3.37908 18.7968 3.25651C18.9996 3.25651 19.1222 3.23647 19.2871 3.25653ZM18.877 6.84911C19.3695 6.91151 19.6994 6.7867 19.6994 6.1716C19.7194 6.19166 19.7395 6.19166 19.7818 6.21172C19.822 6.35658 19.9044 6.47916 19.9468 6.62179C19.9869 6.78671 20.0693 6.84688 20.2343 6.84688C20.3791 6.82682 20.5217 6.84688 20.7067 6.88699C20.6443 6.9494 20.5619 7.03186 20.4816 7.07197C20.1941 7.21684 20.1317 7.42187 20.2766 7.68706C20.3167 7.76952 20.3167 7.87204 20.3591 7.99461C20.1117 7.8297 19.9267 7.62466 19.7217 7.62466C19.5367 7.62466 19.3517 7.84975 19.1467 7.99461C19.2091 7.72718 19.3517 7.48202 19.2915 7.29702C19.2514 7.13211 18.984 7.02959 18.8191 6.88695C18.8547 6.87135 18.877 6.84911 18.877 6.84911ZM19.267 10.4439C19.452 10.464 19.5144 10.4038 19.5545 10.2389C19.5746 10.094 19.637 9.97144 19.6994 9.82881C19.7194 9.80875 19.7618 9.80875 19.7818 9.78869C19.7818 10.4261 20.1317 10.5286 20.6243 10.4662C20.6243 10.4662 20.6243 10.4863 20.6443 10.5063C20.6042 10.5464 20.5619 10.5888 20.4995 10.6512C20.1295 10.8986 20.1295 10.8986 20.2744 11.3287C20.2945 11.3911 20.2945 11.4735 20.3368 11.5961C20.1117 11.4312 19.9267 11.3287 19.7217 11.1861C19.5367 11.3086 19.3518 11.4334 19.1066 11.6184C19.169 11.4134 19.1891 11.2484 19.2515 11.1459C19.3339 10.961 19.2916 10.8584 19.1066 10.7559C18.984 10.6935 18.8815 10.591 18.7991 10.4484C18.9573 10.4439 19.1021 10.4239 19.267 10.4439ZM18.5271 12.3137C18.3622 12.4586 18.117 12.5611 18.0747 12.7461C18.0346 12.911 18.1571 13.1361 18.2396 13.4035C18.0145 13.2386 17.8295 13.116 17.6245 12.9934C17.4395 13.1383 17.2546 13.2408 17.0495 13.4035C17.4819 12.5209 16.927 12.561 16.6996 12.2936C16.6996 12.2936 16.6996 12.2736 16.7197 12.2736C17.1922 12.336 17.5621 12.2112 17.5621 11.5961C17.5822 11.6161 17.6023 11.6161 17.6446 11.6362C17.6847 11.7811 17.7672 11.9036 17.8095 12.0685C17.8496 12.2335 17.9321 12.2936 18.077 12.2736C18.2218 12.2535 18.3845 12.2736 18.5494 12.2736C18.5271 12.2914 18.5271 12.3137 18.5271 12.3137ZM17.1498 5.04172C17.3548 5.06178 17.4373 5.00161 17.4573 4.79434C17.4774 4.64948 17.5398 4.54697 17.6022 4.36199C17.6423 4.42439 17.6646 4.44445 17.6646 4.48456C17.7047 4.93698 17.9521 5.14199 18.4045 5.0395C18.4246 5.0395 18.4669 5.0395 18.487 5.05955C18.487 5.07961 18.487 5.09967 18.4669 5.12196C18.302 5.26682 18.0569 5.36934 18.0145 5.55431C17.9945 5.71923 18.1594 5.94432 18.2195 6.19171C18.1371 6.1516 18.0747 6.1516 18.0546 6.12931C17.7471 5.75935 17.4395 5.82176 17.152 6.12931C17.132 6.14936 17.0896 6.14936 17.0072 6.19171C17.0696 6.00673 17.0896 5.84182 17.152 5.71924C17.2145 5.55432 17.1922 5.47187 17.0295 5.36935C16.8846 5.30694 16.7821 5.18437 16.6796 5.0618C16.8623 5.04174 17.0071 5.02166 17.1498 5.04172ZM16.9447 8.63653C17.3771 8.63653 17.3771 8.63653 17.5197 8.20417C17.5398 8.14177 17.5598 8.05931 17.6423 7.9568C17.7047 8.16183 17.7872 8.30669 17.8072 8.42926C17.8473 8.59418 17.9521 8.65436 18.0947 8.6343C18.2396 8.61424 18.3822 8.6343 18.5271 8.6343C18.117 8.9218 17.8897 9.24939 18.2596 9.74416H18.1772C18.0546 9.6617 17.9298 9.57924 17.8072 9.49678C17.6624 9.37421 17.5821 9.37421 17.4373 9.49678C17.3147 9.57924 17.2122 9.68176 17.0272 9.72187C17.0673 9.57701 17.0896 9.45444 17.1498 9.3118C17.2322 9.10676 17.1899 9.00425 17.0049 8.90173C16.8823 8.83933 16.7999 8.73681 16.6149 8.6343C16.782 8.65658 16.8846 8.63653 16.9447 8.63653ZM15.2398 3.21425C15.3847 3.09168 15.4047 2.82424 15.5073 2.55683C15.5697 2.76186 15.6521 2.86438 15.6722 3.00924C15.7123 3.21428 15.8371 3.27668 16.0221 3.25662C16.1669 3.23656 16.2895 3.25662 16.4945 3.25662C16.2695 3.4416 16.0221 3.56417 15.9396 3.72909C15.8995 3.894 16.0221 4.13916 16.1045 4.38651C15.8794 4.24165 15.6722 4.01656 15.4894 4.01656C15.3045 4.01656 15.1195 4.24165 14.8944 4.40656C14.9345 4.22159 14.9568 4.11907 15.0392 3.9965C15.1618 3.7714 15.0794 3.60649 14.8543 3.50397C14.7718 3.46385 14.6693 3.3591 14.5467 3.27888C14.8297 3.25659 15.1173 3.31677 15.2398 3.21425ZM14.6046 6.87147C14.8297 6.85141 15.0771 6.91159 15.242 6.80907C15.3869 6.6865 15.407 6.41906 15.5095 6.15165C15.5719 6.35668 15.6543 6.4592 15.6744 6.60406C15.7145 6.80909 15.8393 6.8715 16.0243 6.85144C16.1692 6.83138 16.2917 6.85144 16.4767 6.87149C15.9641 7.11887 15.8393 7.46656 16.0867 7.95904C15.9017 7.83647 15.6967 7.65149 15.5117 7.60915C15.3267 7.60915 15.1418 7.83424 14.9568 7.95904C14.9367 7.93898 14.9367 7.91893 14.9367 7.91893C15.1418 7.46651 15.1217 7.07648 14.5267 6.89151C14.5423 6.89151 14.5846 6.87147 14.6046 6.87147ZM14.5846 10.444C14.7072 10.444 14.8097 10.4239 14.8921 10.444C15.1796 10.4841 15.3022 10.3615 15.3446 10.0941C15.3646 10.0116 15.407 9.9091 15.427 9.80658H15.4894C15.5295 9.95144 15.612 10.074 15.6343 10.2166C15.6744 10.4016 15.7791 10.4417 15.9418 10.4417C16.0867 10.4217 16.2093 10.4417 16.3942 10.4819C16.2717 10.5643 16.1692 10.6869 16.0444 10.7493C15.8794 10.8318 15.8594 10.9543 15.9218 11.1192C15.9842 11.2641 16.0042 11.3867 16.0867 11.6118C15.8393 11.4469 15.6766 11.3243 15.4716 11.1794C15.2866 11.3243 15.1017 11.4268 14.8966 11.5694C14.8766 11.5494 14.8766 11.5293 14.8766 11.5293C15.0816 11.0769 15.0615 10.6869 14.4665 10.5019C14.5423 10.464 14.5623 10.464 14.5846 10.444ZM12.5298 5.06403C13.0022 5.12643 13.3722 5.00162 13.3722 4.38652C13.3923 4.40658 13.4346 4.40658 13.4547 4.42664C13.4948 4.5715 13.5371 4.69407 13.5995 4.83671C13.6397 5.00163 13.7221 5.0618 13.887 5.0618C14.0319 5.04174 14.1745 5.0618 14.442 5.0618C14.257 5.20666 14.1545 5.30918 14.0096 5.36935C13.8447 5.43176 13.7845 5.53427 13.8647 5.6769C13.9271 5.82176 13.9472 5.94434 14.0297 6.16943C13.9071 6.10702 13.8246 6.04686 13.7823 6.00451C13.4123 5.75713 13.4123 5.75713 13.0847 6.00451C13.0223 6.04463 12.9398 6.08697 12.8373 6.18949C12.8997 5.92205 13.0424 5.6769 13.0022 5.4919C12.9621 5.32698 12.6947 5.22446 12.5298 5.08183L12.5298 5.06403ZM13.1449 8.59642C13.2897 8.47385 13.3098 8.20641 13.3922 8.00135C13.4123 8.02141 13.4546 8.02141 13.4546 8.02141C13.517 8.51394 13.8246 8.74125 14.3996 8.59639C14.3171 8.71897 14.277 8.74126 14.2547 8.76131C13.8023 8.96634 13.7421 9.2739 13.9672 9.66389V9.74635C13.9271 9.72629 13.9048 9.72629 13.8847 9.70624C13.5772 9.33628 13.2473 9.35634 12.9398 9.70624C12.9198 9.72629 12.8997 9.72629 12.8172 9.74635C12.8574 9.56137 12.8997 9.4388 12.9621 9.29394C13.0245 9.12902 12.9822 9.04656 12.8395 8.94404C12.6947 8.88164 12.6144 8.75906 12.4295 8.65654C12.7147 8.65654 12.9822 8.69894 13.1449 8.59642ZM12.9398 12.2313C13.1248 12.2514 13.1872 12.1912 13.2273 12.0263C13.2474 11.8814 13.3098 11.7589 13.3722 11.6162C13.4123 11.6363 13.4346 11.6363 13.4346 11.6363C13.497 12.1288 13.7845 12.3762 14.3372 12.2113V12.2937C14.2547 12.3561 14.1522 12.4787 14.0497 12.5188C13.8246 12.6414 13.8023 12.7863 13.8847 13.0113C13.9249 13.0938 13.9472 13.2164 13.9472 13.3813C13.7622 13.2587 13.5772 13.1339 13.3922 13.0113C13.2072 13.1562 13.0223 13.2587 12.7771 13.4214C12.8172 13.2164 12.8395 13.0715 12.922 12.9489C12.9844 12.764 12.9621 12.6614 12.7994 12.5589C12.6768 12.4965 12.5743 12.394 12.4094 12.2915C12.6323 12.2714 12.7972 12.2313 12.9398 12.2313ZM11.9347 7.95902H11.8523C11.7297 7.87656 11.6049 7.7941 11.4823 7.71164C11.3374 7.58907 11.2572 7.58907 11.1123 7.71164C10.9898 7.7941 10.865 7.89662 10.68 8.01919C10.7424 7.81416 10.7424 7.6693 10.8249 7.54673C10.9073 7.34169 10.8449 7.23917 10.68 7.13666C10.5574 7.07425 10.4749 6.97174 10.3724 6.84916C10.5374 6.84916 10.6599 6.8291 10.8249 6.84916C11.0098 6.86922 11.0923 6.80904 11.1324 6.62407C11.1525 6.4792 11.2149 6.35663 11.2973 6.1516C11.3597 6.35664 11.4422 6.50149 11.4823 6.64413C11.5224 6.80905 11.6049 6.86922 11.7698 6.84917C11.9147 6.82911 12.0573 6.84917 12.2222 6.84917C11.7899 7.13666 11.5224 7.42415 11.9347 7.95902ZM10.9898 3.23656C11.1347 3.11399 11.1748 2.84655 11.2572 2.57914C11.2973 2.724 11.3397 2.80423 11.3798 2.86663C11.5247 3.25664 11.5247 3.25664 11.9347 3.25664C12.0172 3.25664 12.1197 3.25664 12.2022 3.29676C12.1197 3.35916 12.0172 3.48173 11.8946 3.54413C11.7297 3.62659 11.6896 3.74917 11.7721 3.93414C11.8345 4.05672 11.8545 4.20158 11.9169 4.40661C11.7319 4.26175 11.6094 4.20157 11.4846 4.11912C11.3397 3.99654 11.2595 3.99654 11.1146 4.11912C10.992 4.20157 10.8672 4.30409 10.6823 4.42667C10.7224 4.26175 10.7447 4.17929 10.7647 4.11912C10.9096 3.64665 10.9697 3.76922 10.5597 3.48172C10.4973 3.4416 10.4148 3.35914 10.3123 3.29674C10.5797 3.27668 10.8449 3.33908 10.9898 3.23656ZM11.0099 10.4036C11.1547 10.281 11.1948 10.0136 11.2773 9.74615C11.3397 9.95119 11.4222 10.0961 11.4422 10.2186C11.4823 10.3835 11.5648 10.4437 11.7096 10.4237C11.8746 10.4036 12.0172 10.4237 12.1821 10.4638C12.0595 10.5462 11.957 10.6488 11.8322 10.7112C11.6673 10.7936 11.6272 10.9162 11.7096 11.1012C11.7721 11.2237 11.7921 11.3686 11.7921 11.5335C11.6071 11.3887 11.4221 11.2861 11.2372 11.1435C11.0522 11.2884 10.8672 11.3909 10.6822 11.5335C10.6622 11.5335 10.6622 11.5135 10.6421 11.5135C10.6822 11.3686 10.7045 11.226 10.787 11.0811C10.8494 10.9162 10.8271 10.8337 10.6644 10.7312C10.5195 10.6688 10.417 10.5462 10.2543 10.4437C10.5998 10.4437 10.845 10.5061 11.0099 10.4036ZM11.0099 17.5911C11.1547 17.4686 11.1948 17.2011 11.2773 16.9337C11.3397 17.1387 11.4222 17.2836 11.4422 17.4262C11.4823 17.5912 11.5648 17.6313 11.7096 17.6313C11.8746 17.6112 12.0172 17.6313 12.1621 17.6313C12.1621 17.6513 12.1821 17.6714 12.1821 17.6937C12.0595 17.7761 11.957 17.8787 11.8322 17.9411C11.6673 18.0235 11.6472 18.1461 11.7096 18.311C11.7498 18.4559 11.7921 18.5784 11.8746 18.8035C11.6272 18.6186 11.4422 18.516 11.2595 18.3712C11.0745 18.516 10.8895 18.6186 10.6444 18.8035C10.7068 18.5985 10.7268 18.4536 10.7893 18.3511C10.8717 18.1461 10.8294 18.0012 10.6444 17.9188C10.5218 17.8564 10.4393 17.7539 10.2744 17.6513C10.5998 17.6313 10.8449 17.7137 11.0099 17.5911ZM8.27752 5.06397C8.77005 5.14643 9.09988 4.98151 9.11997 4.40655C9.18237 4.42661 9.20243 4.44666 9.20243 4.44666C9.28489 4.93919 9.55232 5.18659 10.1273 5.04173C9.57238 5.30917 9.44981 5.65682 9.73731 6.19169C9.32724 5.73928 8.93725 5.73928 8.58734 6.21175C8.58734 6.19169 8.56728 6.17163 8.56728 6.14935C8.6074 6.02677 8.6074 5.92425 8.68986 5.79945C8.81243 5.57436 8.72997 5.40944 8.50488 5.30692C8.42242 5.26681 8.3199 5.16206 8.23744 5.10188C8.2575 5.08405 8.27752 5.06397 8.27752 5.06397ZM8.2374 8.63647C8.40232 8.63647 8.5249 8.61641 8.68982 8.63647C8.8748 8.65653 8.9372 8.59635 8.97732 8.43143C8.99737 8.28657 9.05978 8.164 9.14223 7.95896C9.18235 8.04142 9.22469 8.08154 9.22469 8.10383C9.26481 8.55624 9.53224 8.71892 9.96462 8.61642C9.98467 8.61642 10.027 8.61642 10.1095 8.63647C10.027 8.69887 9.96462 8.75905 9.90444 8.80139C9.53449 9.06883 9.53449 9.06883 9.67935 9.49898C9.69941 9.56139 9.69941 9.64385 9.74176 9.76642C9.57684 9.64385 9.49438 9.6015 9.39186 9.51904C9.20688 9.33406 9.0219 9.33406 8.83693 9.51904C8.77452 9.58145 8.65195 9.66391 8.48703 9.76642C8.69207 9.25383 8.71212 8.86384 8.09702 8.65656C8.19731 8.67885 8.21735 8.65653 8.2374 8.63647ZM7.88751 10.5665C7.43509 10.7715 7.37492 11.059 7.60001 11.469V11.5916C7.39497 11.4468 7.23006 11.3442 7.02503 11.1815C6.84005 11.3264 6.65508 11.4289 6.4701 11.5716C6.45004 11.5716 6.45004 11.5515 6.42998 11.5515C6.4701 11.4289 6.4701 11.3264 6.55256 11.2016C6.67513 10.9765 6.59267 10.8116 6.36758 10.7091C6.28512 10.669 6.1826 10.5642 6.1202 10.4416C6.28512 10.4416 6.4077 10.4216 6.57262 10.4416C6.75759 10.4617 6.81999 10.4015 6.86011 10.2366C6.88017 10.0917 6.94257 9.96917 7.00497 9.82653C7.04509 9.84659 7.06738 9.84659 7.06738 9.84659C7.12979 10.3592 7.43734 10.5664 8.01229 10.4216C7.94989 10.5063 7.94991 10.5464 7.88751 10.5665ZM7.66242 7.09649C7.47744 7.26141 7.41504 7.34387 7.4975 7.52885C7.5599 7.65142 7.57996 7.79628 7.66242 8.00131C7.51755 7.91886 7.43733 7.85645 7.37492 7.79628C7.16988 7.59124 6.96485 7.57118 6.75983 7.79628C6.69743 7.85868 6.59491 7.91885 6.47233 7.96119C6.75983 7.46867 6.65731 7.09872 6.12244 6.89367C6.1425 6.85356 6.16255 6.83127 6.16255 6.83127C6.38765 6.81121 6.63502 6.87138 6.79995 6.76886C6.94482 6.6864 6.96487 6.39891 7.02504 6.19388H7.08745C7.12756 6.33875 7.16991 6.46132 7.23231 6.60395C7.27243 6.76887 7.35489 6.82904 7.51981 6.80898C7.66467 6.78893 7.80731 6.80898 7.99228 6.8491C7.88753 6.93156 7.78499 7.01403 7.66242 7.09649ZM6.10236 3.25653C6.24722 3.25653 6.38985 3.23647 6.53471 3.25653C6.73975 3.27658 6.82221 3.19412 6.84226 3.00915C6.86232 2.86429 6.92472 2.76177 6.98712 2.61914C7.02724 2.6392 7.04953 2.6392 7.04953 2.6392C7.11193 3.15179 7.41949 3.35904 7.93209 3.2766C7.74711 3.42146 7.49973 3.52397 7.43956 3.70895C7.4195 3.89393 7.58442 4.14131 7.62453 4.34635C7.60448 4.34635 7.58442 4.36641 7.58442 4.36641C7.21446 4.01651 6.8445 3.93405 6.45448 4.40652C6.74198 3.85159 6.6194 3.52397 6.06447 3.31898C6.08007 3.29669 6.10236 3.27659 6.10236 3.25653ZM5.50507 12.6013C5.34015 12.6414 5.30003 12.7662 5.3602 12.9088C5.4226 13.0537 5.44266 13.1763 5.52512 13.4013C5.27774 13.2364 5.09276 13.1138 4.91003 12.969C4.72505 13.1139 4.54007 13.2164 4.3551 13.359C4.33504 13.359 4.33504 13.3389 4.31498 13.3389C4.3551 13.1941 4.37738 13.0514 4.45984 12.9066C4.52225 12.7417 4.4799 12.6592 4.33727 12.5567C4.19241 12.4943 4.08989 12.3717 3.96731 12.3093L4.00743 12.2692C4.21247 12.2491 4.4799 12.2893 4.64483 12.2068C4.78969 12.1243 4.80975 11.8368 4.86992 11.6318H4.93233C4.97244 11.7767 5.01478 11.8993 5.07719 12.0419C5.1173 12.2068 5.19976 12.267 5.36469 12.267C5.50955 12.2469 5.65218 12.267 5.83715 12.3071C5.75246 12.4163 5.64993 12.5389 5.50507 12.6013ZM4.00742 5.04172C4.17234 5.04172 4.29492 5.02166 4.45983 5.04172C4.64481 5.06178 4.70721 5.00161 4.74733 4.83668C4.76739 4.69182 4.82979 4.56925 4.93231 4.40433C4.97242 4.5269 5.01477 4.60937 5.05488 4.71188C5.095 4.95926 5.23986 5.06177 5.48724 5.01943C5.60981 4.99937 5.71233 5.01943 5.85719 5.05955C5.73462 5.12195 5.65215 5.24452 5.54964 5.30692C5.3446 5.4295 5.32455 5.5543 5.40478 5.73928C5.44489 5.86185 5.46718 5.98665 5.46718 6.14935C5.34461 6.06689 5.2198 5.98443 5.11729 5.90197C4.97242 5.75711 4.84985 5.7794 4.70722 5.90197C4.58464 5.98443 4.48212 6.06689 4.35732 6.14935C4.35509 6.13152 4.35509 6.11146 4.35509 6.11146C4.58018 5.65905 4.54007 5.2891 3.96508 5.10413C3.98514 5.08407 4.00742 5.06401 4.00742 5.04172ZM3.98513 8.65655C4.15005 8.65655 4.27263 8.6365 4.43755 8.65655C4.62253 8.67661 4.68492 8.61644 4.72504 8.45151C4.7451 8.30665 4.8075 8.18408 4.86991 8.04145C4.91002 8.0615 4.93231 8.0615 4.93231 8.0615C4.99471 8.55403 5.30227 8.78134 5.81487 8.65657V8.71897C5.40257 8.96635 5.17747 9.27391 5.60761 9.78649C5.56749 9.78649 5.5452 9.76644 5.48503 9.76644C5.44492 9.74638 5.40257 9.74638 5.36246 9.72632C5.05491 9.35637 4.74737 9.41877 4.45988 9.72632C4.43982 9.74638 4.39748 9.74638 4.37742 9.76644H4.29496C4.64486 9.27391 4.5 8.92399 3.94506 8.719C3.96512 8.69894 3.98513 8.67884 3.98513 8.65655ZM1.93253 3.25659C2.13757 3.23653 2.405 3.27664 2.56993 3.19418C2.71479 3.11172 2.73485 2.82422 2.83737 2.6192C2.87748 2.76406 2.95994 2.88664 2.98223 3.02927C3.02234 3.21425 3.12709 3.27664 3.28978 3.25436C3.43464 3.2343 3.57728 3.25436 3.76225 3.27442C3.20732 3.49951 3.10483 3.86948 3.39229 4.38427C2.98222 3.93186 2.59224 3.93186 2.24233 4.40433C2.24233 4.38427 2.22227 4.36421 2.22227 4.34193C2.26239 4.21935 2.26239 4.09455 2.34484 3.97197C2.46742 3.74688 2.38496 3.60201 2.17993 3.4995C2.05735 3.45939 1.97489 3.35464 1.89243 3.29446C1.91249 3.27664 1.93253 3.25659 1.93253 3.25659ZM1.91247 6.84917C2.38494 6.88928 2.77495 6.82911 2.73484 6.15158C2.75489 6.17163 2.79724 6.19169 2.8173 6.21398C2.85741 6.35884 2.93987 6.48142 2.98221 6.64634C3.02233 6.81125 3.10479 6.87143 3.26971 6.85137C3.41457 6.83132 3.55721 6.85137 3.74218 6.89149C3.61961 6.97395 3.51709 7.09653 3.37222 7.15893C3.22736 7.24138 3.18725 7.3439 3.24965 7.50882C3.31206 7.65369 3.33211 7.77626 3.41457 8.00135C3.22959 7.85649 3.10702 7.79631 2.98221 7.71385C2.83735 7.59128 2.75712 7.59128 2.61226 7.71385C2.48969 7.79631 2.36488 7.89883 2.2423 7.98129L2.24007 7.93895C2.46517 7.48653 2.44511 7.11658 1.87012 6.93162C1.91246 6.87144 1.91247 6.84917 1.91247 6.84917ZM1.91247 10.444C2.38494 10.5064 2.75492 10.3816 2.75492 9.76646C2.77498 9.78652 2.79504 9.78652 2.83738 9.80658C2.87749 9.95144 2.95995 10.074 3.0023 10.2389C3.04241 10.4039 3.14716 10.464 3.28979 10.444C3.43466 10.4239 3.57729 10.444 3.76226 10.4841C3.63969 10.5665 3.53717 10.6691 3.41237 10.7315C3.22739 10.8139 3.16499 10.9365 3.24745 11.1215C3.30985 11.244 3.32991 11.3889 3.39231 11.5939C3.14494 11.429 2.95996 11.3064 2.77722 11.1839C2.59224 11.3064 2.40727 11.4313 2.16213 11.6162C2.20225 11.4112 2.22454 11.2663 2.307 11.1638C2.42957 10.9588 2.34711 10.8139 2.14208 10.7114C2.0195 10.649 1.93705 10.5465 1.85458 10.4863C1.89247 10.464 1.89242 10.444 1.91247 10.444Z" fill="white"/>
<path id="Vector_6" d="M56.1702 32.665C56.1502 33.6724 56.2104 34.6574 56.1702 35.6626V32.665Z" fill="white"/>
<path id="Vector_7" d="M56.1699 27.5103C56.1699 28.3727 56.19 29.2152 56.1699 30.0776V27.5103Z" fill="white"/>
<path id="Vector_8" d="M56.1699 17.2007C56.1899 18.0431 56.1498 18.8855 56.1699 19.748V17.2007Z" fill="white"/>
<path id="Vector_9" d="M56.1699 12.0859C56.1899 12.9284 56.1498 13.7708 56.1699 14.611V12.0859Z" fill="white"/>
<path id="Vector_10" d="M56.171 1.30347C56.151 2.3108 56.171 3.3159 56.171 4.32329V1.30347Z" fill="white"/>
</g>
</g>
<rect x="0.623047" y="1.45605" width="55.4826" height="34.0877" stroke="white"/>
</g>
<defs>
<clipPath id="clip0_6979_3112">
<rect x="0.123047" y="0.956055" width="56.4826" height="35.0877" fill="white"/>
</clipPath>
</defs>
</svg>
