<?xml version="1.0" encoding="UTF-8"?>
<svg id="Layer_1" xmlns="http://www.w3.org/2000/svg" version="1.1" viewBox="0 0 1000 1000">
  <!-- Generator: Adobe Illustrator 30.3.0, SVG Export Plug-In . SVG Version: 2.1.3 Build 182)  -->
  <defs>
    <style>
      .st0 {
        fill: #fff;
      }
    </style>
  </defs>
  <path class="st0" d="M824.95,809.37c-32.09,21.98-80.23,33.6-115.73,17.48l-15.16,6.39c-3.05,1.29-6.01,4.38-7.83,7.32l41.95,1.98c18.46,2.55,36.58,7.18,52.84,17.52-33.61,7.47-79.62,11.51-108.05-2.96l-9.97-6.81-16.2,5.71-3.22,1.13c-.68.24-.05,2.76.59,3.29,25.81,4.01,56.78,11.36,79,28.62-14.92,4.41-38.09,4.38-52.42,2.32-30.71-4.41-57.97-17.81-81.23-37.8-1.58-1.36-4.34-3.43-4.6-5.23,7.03-23.3,21.12-42.41,39.7-57.72,12.58-10.36,25.63-19.54,41.97-25.16-7.41,15.84-15.61,29.46-25.11,42.94-8.27,11.75-18.01,20.73-28.91,31.39,13.52-2.42,25-6.88,36.66-11.71l11.13-5.97c3.11-18.44,11.32-35.12,22.65-49.99l14.41-16.66,7.04-7.01,11.41-10.64c3.24-3.02,7.2-5.1,12.43-4.46-4.03,15.93-10.42,30.33-18.44,44.33l-15.35,26.81,19.86-11.24c4.25-2.41,7.82-5.91,11.12-9.58.83-37.53,18.89-78.46,48.73-102.39-.02,6.27-.56,10.59-1.6,15.94-4.03,20.78-9.4,40.25-15.82,61.12l16.27-11.16c5.74-3.94,7.87-10.37,7.32-17.23l-1.16-14.6c-.76-9.54-1.79-17.96.58-27.32,2.88-11.35,5.6-22.66,10.84-33.25l14.55-29.43c2.09,3.42,2.75,6.74,3.09,10.67,1.92,22.29,1.52,43.84-2.48,65.94-.2,1.08,2.29,3.57,2.96,2.77,5.97-7.07,11.22-15.35,15.5-23.56l-3.72-12.77c-4.4-26.11-1.53-52.36,7.52-77.09,2.89-7.9,6.12-14.36,11.46-21.72,1.9,5.82,2.73,11.14,3.23,17.41l2.21,27.54,1.85,28.79,11.13-23.27c-6.54-10.77-10.93-22.04-11.63-34.59l-1.32-23.47,1.72-30.12c.56-9.89,3.42-18.82,7.59-29.02,7.68,17.12,11.22,34.83,15.09,52.83l3.89,18.14,5.82-15.92c2.18-5.97-5.43-10.78-11.02-24.2-10.29-24.68-13.7-50.89-12.27-77.67.38-7.06-.27-13.93,3.66-19.66l27.42,61.07c1.88-12.44.65-23.55.71-35.31-25.51-20.52-40.46-52.6-47.37-84.61-1.45-6.73-2.93-12.58-2.24-20.12,14.39,14.44,26.94,29.03,37.77,45.8l9.13,14.13c1.24-5.34.06-9.53-.94-14.52l-4.88-24.33c-34.59-17.33-62.44-52.55-70.68-92.25,17.78,13.17,33.29,26.53,48.94,40.28,2.17,1.91,3.09,3.73,6.79,4.2l-10.4-25.62c-.64-1.57-3.28-3.87-4.8-4.96-18.6-4.07-34.48-12.93-49.09-24.99-14.75-13.4-28.09-27.43-39.78-44.22,13.3,1.95,23.87,6.35,34.8,12.27l29.5,16c.68.37,2.61.74,3.22.87s.5-2.62.05-3.29l-12.96-19.26-8.77-8.63c-41,.3-72.61-17.1-104.56-41.72,8.21-2.63,15.24-.33,22.74.37l15.57,1.45,42.65,10.78c-1.94-3.83-4.92-6.85-8.04-10.05-5.15-5.27-10.6-10.16-17-13.36l-15.23,3.72c-20.03,2.13-39.19-.34-58.1-6.73-14.08-4.76-27.16-10.11-39.62-18.1,12.82-3.65,24.33-3.74,36.72-4.04,18.56-.44,35.59,2.29,54.99,6.3-13.29-15.99-23.49-30.48-29.93-48.72-6.07-17.17-12.56-38.66-12.94-57.19,23.76,23.93,44.09,48.45,48.82,82.4l1.23,22.97c6.1,7.45,12.59,15.69,23.4,18.93-14.74-28.57-23.75-56.86-20.05-89.53,3.44,3.21,4.98,5.75,7.28,9.03,10.41,14.82,20.31,29.68,27.09,46.7,6.25,15.68,6.85,32.17,5.06,48.9-.4,3.75.9,6.35,3.13,8.8l9.16,10.05c1.95,2.14,4.83,3.93,7.7,4.38-2.85-9.11-6.17-16.98-7.26-26.21-2.65-22.42-2.45-44.8.63-68.16,6.64,8.52,10.05,17.07,13.98,26.05,13.02,29.74,19.34,59.29,8.08,91.25l19.2,26.65-4-21.67c-1.7-16.38-1.66-33.03-.14-49.59l1.8-12.34c1.03-7.03,2.91-13.5,5.69-20.82,9.78,19.27,14.32,38.82,17.43,59.36,1.53,10.1,1.29,20.71.25,30.85-1.16,11.34-5.61,21.21-10.33,31.37l6.67,12.98,5.99,12.51,2.15-2.17,1.21-33.67,1.8-21.06c2.23-11.37,4.18-22.14,10.46-33.16,6.14,14.71,9.07,30.29,11.21,46.3l1.44,19.3c1.13,15.22-4.16,41.68-14.19,53.86l5.06,17.35c.61,2.09,2.4,4.54,4.13,5.92l2.14-18.23,2.69-14.61c4.8-19.18,11.88-37.26,25.5-53.27,5.04,40.88,1.56,83.98-23.61,116.92l2.48,14.03c.31,1.73,3.18,3.31,4.3,2.11,4.84-32.8,23.65-57.28,44.2-82.47.49-.78,2.34-.5,1.93.39l-2.1,22.21c-2.75,29.05-18.98,67.03-42.6,86.08l.72,23.99c.02.53.85,2.53,1.16,2.41l2.03-.77c11.3-26.62,28.55-50.31,48.96-70.96.41-.42,1.41-1.35,1.53-.97l.71,2.07c-2.79,21.55-7.75,42.29-17.45,61.63-8.29,17.09-20.65,30.68-36.56,40.07l-.39,31.97c17.34-27.58,36.46-52.75,64.4-69.47-1.46,7.47-3.95,13.1-6.45,19.45-12.74,32.38-28.61,63.36-61.9,76.92l-2.82,10.32c-1.6,5.84-3.3,11.56-1.17,18.4,7.74-12.63,16-23.08,27.19-32.31,16.38-13.51,34.43-24.42,55.63-31.77-22.9,37.33-46.27,71.61-89.5,79.67l-10.05,32.88c16.89-14.62,31.8-28.15,50.99-37.66,11.58-5.74,22.76-10.76,36.56-12.34l-16.38,19.53-15.25,17.69-6.15,6.11c-11.88,11.79-26.84,20.97-44,22.86l-14.33,1.58-8.92,19.07c-2.19,4.69-5.39,8.89-6.55,13.85,26.72-20.48,52.74-30.17,83.48-39.47l1.74,1.85-11.24,12.25-18.28,18.77c-18.32,18.81-43.29,27.84-69.54,28.46l-11.79,16.12c-2.52,3.44-5.47,6.46-4.94,11.45,12.99-8.87,26.73-14.63,41.9-17.69l23.36-4.71,22.18-3.65-16.03,16.21c-17.5,14.93-37.72,25.43-60.55,29.36-9.88,1.7-19.88,1.3-29.9,1.26l-12.16,11.64c-2.81,2.69-5.49,5.73-5.71,10.05,28.29-9.11,53.8-14.29,84.19-9.64l-17.46,9.87c-31.11,17.58-60.09,32.4-96.03,22.17l-14.53,11.35-6.99,6.35c-.26.24-.71,1.6-.8,1.94-.13.51,1.48.99,2.1.86l21.7-4.71c19.11-2.18,44.84-1.84,66.05,2.74Z"/>
  <path class="st0" d="M239.22,808.35c10.18.1,19.11,3.58,29.25,5.77-2.26-5.91-7.45-8.98-12.19-12.35l-10.07-7.17c-2.26-1.48-7.98.32-10.87.81-29.42,4.94-55.86-7.37-80.9-21.69l-22.44-12.84c28.22-4.09,54.52.34,80.06,8.93l3.01.71c.79.19.75-3.71.14-4.32l-13.17-13.06-4.17-4.36c-35.84,3.32-69.88-10.34-95.37-35.24-3.68-3.59-6.68-6.02-9.8-10.66l29.5,4.51c12.78,1.95,25.06,5.59,37.15,10.05,7.17,2.65,12.95,6.58,20.28,11.05.19-5.29-3.85-9.15-6.79-13.37l-10.12-14.53c-38.18-.97-60.93-16.68-85.27-44.09-4.87-5.48-9.98-9.93-14.03-16.93,17,3.94,31.61,9.58,46.77,16.07,12.79,6.06,24.48,12.84,35.7,21.25.44-.12,1.87-.45,1.76-.75l-.86-2.49-13.52-27.05-12.61-1.88c-24.37-3.63-42.49-17.57-58.09-36.31l-24.62-29.57c10.69.48,18.54,4.39,27.37,7.76,22.83,9.94,41.38,24.78,60.25,42.89l-10.91-34.23c-15.94-3.15-30.31-9.48-42.77-20.14-12.41-10.62-22.78-22.62-31.73-36.25l-15.51-23.63c33.28,12.2,65.55,33.63,83,64.35,2.3-1.82,2.58-4.85,1.93-7.3l-5.6-21.17c-38.85-16.34-55.56-57.53-68.76-96.63,8.96,4.97,15.83,10.36,22.64,16.72,15.51,14.14,28.26,29.9,38.75,48.06l2.01,1.44c.54.39,1.36-2.08,1.35-2.84l-.44-25.72c-36.44-22.05-48.82-62.62-54.09-104.68,4.43,3.06,6.79,6.53,10.08,10.08,17.99,19.43,32.3,40.77,42.59,65.48,3.88-7.67,0-18.11,3.38-27.9-21.85-18.25-36.59-47.61-41.26-75.63l-3.17-19.03c-.91-5.47-1.52-10.45-.6-15.92,22.59,25.99,40.32,50.92,46.29,84.84,7.1-1.95,3.03-10.1,7-16.66-25.96-32.5-28.96-75.11-25.02-117.8,20.49,23.01,29.68,57.17,30.37,87.6,5.48-4.78,8.41-17.56,8.84-25.31-13.99-20.3-14.53-50.13-11.38-74.37,1.93-14.84,4.42-28.98,10.75-43.83,8.01,13.24,10.6,28.33,11.77,43.34l1.14,14.62.47,32.5c3.83-2.29,4.2-5.02,5.73-7.95l9.34-17.92c-4.02-8.08-8.08-16.56-9.49-25.97-3.45-23.06-.62-45.86,5.93-68.11,2.82-9.58,5.66-18.33,10.84-27.69,7.96,22.3,9.01,47.95,8.01,71.14-.45,10.45-2.62,19.47-4.26,31.03,7.76-8.04,12.49-16.32,18.94-24.53-15.37-38.67.12-81.5,21.2-117.25,3.74,19.85,3.95,38.61,2.34,57.68-1.12,13.24-3.47,25.01-9.27,37.76,2.38-.37,5.39-2.15,7.31-4.27l14.56-15.99c-8.53-44.44,12.97-74.01,37.95-109.11,3.54,32.16-4.79,62.17-20.38,90.05,2.22-.24,6.55-1.37,7.99-2.78l16.27-15.94c-2.31-46.48,19.22-74.1,50.44-106.52-3.93,35.08-13.66,68.04-34.01,95.1-2.82,3.75-6.67,6.11-8.65,11.71,29.83-6.73,60.07-9.54,90.88-2.42-31.73,19.2-70.21,30.7-104.6,23.84l-10.44-2.08c-9.42,6.4-16.57,13.52-23.59,23.04l17.23-4.55c21.11-5.58,41.83-9.7,64.77-8.53-32.69,25.24-63.2,42.07-105.18,42.07-8.65,7.37-14.02,16.09-19.88,25.47-1.05,1.69-1.52,3.23-.34,5.73l21.65-11.51c12.55-6.67,31.52-17.66,44.5-16.65-24.65,31.49-49.13,59.43-89.9,68.56-4,5.81-7.22,12.22-9.64,18.98l-4.62,12.9c6.22-4.26,9.68-7.93,14.44-12.09,13.43-11.7,26.71-22.98,41.96-34.54-8.33,39-35.74,75.51-70.34,92.18l-3.16,14.14c-1.98,8.84-4.96,23.9-2.19,22.24l1.67-.99c12.6-19.75,26.06-38.34,44.04-55.26.22,17.08-4.95,33.22-11.08,49.12-8.26,21.43-20.79,40-37.89,55.12l-.14,30.86,2.37,1.14c8.49-19.51,15.93-38.75,26.36-59.36,6.41,38.75,2.27,85.66-19.93,117.1-1.37,6.51,1.47,14.54,5.56,21.12,5.15-24.02,8.54-47.56,18.7-70.81,5.85,13.87,7.05,27.41,8.51,41.29,2.56,24.35.71,55.32-12.12,76.39l11.33,25.03,1.97-42.06,1.35-12.37,3.2-20.92c8.65,10.59,12.5,22.5,16.04,35.24,6.73,24.2,8.55,52.99-.71,76.28l14.88,23.32c.76,1.19,3.77,1.87,4.44,1.03-4.36-23.35-5.88-46.48-2.83-69.75l2.31-11.29,7.38,13.88c7.8,14.67,13.81,29.99,17.74,46.19,6.52,26.84-4.15,43.59,1.44,54.26,4.39,8.39,11.64,13.53,20.42,17.25-.34-4.82-1.19-8.3-2.4-12.46-5.82-19.98-11.68-39.81-12.78-62.2,28.03,24.05,45.08,58.15,47.47,94.07.48,7.13,1.21,11.22,7.88,15.15l24.2,14.29c-9.75-17.28-19.38-32.54-26.8-50.07l-7.22-21.62c4.42-.25,7.82.74,10.75,3.21,26.93,22.69,51.15,50.85,57.73,86.19,14.46,7.95,29.34,13.62,46.08,17.1-2.04-5.25-6.41-7.11-9.75-10.4-11.15-10.95-20.72-23.02-28.38-36.59l-14.71-26.06,1.56-1.02c35.46,15.31,70.24,45.71,80.04,83.92-30.45,27.34-67.8,44.25-108.75,42.68-10.15-.39-19.89.36-29.51-3.25,22.67-17.51,54.34-24.92,81.87-29.26-2.47-3.02-5.75-3.94-9.09-5.2l-12.6-4.75c-21.77,20.49-67.58,18.46-97.69,13.93l-17.11-2.57c-.92-.14-.48-3.26.27-3.44,16.57-8.77,33.86-13.35,52.36-15.76l38.69-1.41c-2.12-4.17-5.77-6.56-9.81-8.22l-13.15-5.43c-35.68,15.71-81.61,4.66-114.61-16.79,4.2-2.07,9.11-2.6,14.25-3.16l12.12-1.33,34.24.33Z"/>
  <path class="st0" d="M709.02,524.99c-9.18,18.79-32.02,20.38-52.03,20.34l-46.89-.08c-1.32-1.99-.97-6.76.73-7.11,2.79-.54,6.75-1.03,8.5-2.2s3.53-5.43,3.53-8.25l-.06-81.3c0-10.55-11.06-7.28-12.27-10.98-.51-1.54.24-4.89,1.4-5.63l48.04-.06c16.66-.02,38.28.87,43.7,16.55,3.32,9.6,2.07,18.76-4.59,25.87-4.34,4.64-10.5,7.27-16.29,9.54,11.01,1.76,21.15,6.52,26.21,16.41,4.18,8.17,4.07,18.65.03,26.92ZM674.5,465.09c1.88-10.09-.57-21.03-8.7-24.59-4.6-2.02-10.05-2.59-13.7.4l-.26,38.41c10.31,2.21,20.51-2.67,22.66-14.21ZM674.58,495.74c-5.69-6.95-14.85-8.74-22.91-7.4l.43,36.69c.04,3.21,1.65,7.46,3.56,8.9,2.37,1.79,6.17,2.46,9.11,1.83,17.08-3.62,18.65-29.24,9.82-40.03Z"/>
  <path class="st0" d="M451.83,547.79c-27.35-1.52-48.96-19.22-54.05-45.93-6.3-33.07,12.09-66.67,46.12-73.09,10.46-1.97,20.3-2.08,30.66.66,36.36,9.62,50.18,50.65,35.56,84.65-9.96,23.16-33.18,35.11-58.29,33.71ZM472.27,532.78c6.44-6.95,8.37-16.29,9.27-25.19,2.14-21.29.88-47.4-12.27-63.72-3.67-4.55-9.52-6.89-14.74-6.99-11.88-.23-19.68,12.51-22.43,25.06-3.83,17.47-2.39,34.74,1.9,52.17,2.8,6.88,6.38,13.05,11.06,18.68,7.96,6.52,19.68,8.11,27.21-.01Z"/>
  <path class="st0" d="M367.96,437.12c-1.55-.83-1.8-4.8-.83-7.48l41.18.09c1.36,1.5,1.73,5.35.79,7.43-8.22.23-13.25,4.63-16.15,11.96l-38.71,97.62-13.92-.23-38.59-100.89c-2.23-5.82-7.82-7.52-13.01-8.49-2.31-.43-1.75-6.47.19-7.43l54.89.02c1.82,1.88,1.35,6.67-.47,7.11l-10.5,2.55,4.17,14.74,20.76,52.91,20.44-58.83c.77-2.46,1.67-7.31-.41-8.95-1.87-1.48-6.33-1.52-9.83-2.14Z"/>
  <path class="st0" d="M528.52,540.67l-6.01-28.83c2.05-1.96,5.49-3,8.23-2.81,3.93,9.65,8.71,18.08,16.82,24.34,7.02,5.41,17.97,7.11,25.1,1.22,6.14-5.08,7.17-15.77,3.22-22.4-3.57-5.99-9.82-9.11-15.64-12.29l-18.23-9.97c-4.4-2.41-8.67-7.04-11.32-11.73-10.15-17.95-.39-40.73,18.88-47.62,13.52-4.83,26.85-3.27,40.74.13l3.72.91c1.03.25,1.23,2.9,1.39,4.15l2.95,22.73c.1,2.16-6.72,3.15-7.72,1.26l-7.82-14.8c-4.43-8.39-17.15-10.66-24.92-5.3-4.44,3.06-6.48,8.1-6.38,12.71s2.32,9.9,6.86,12.27l18.4,9.62c7.01,3.67,14.17,7.5,19.44,13.62,7.9,9.16,9.65,21.91,5.84,34.07-3.05,9.76-11.65,18.42-22.87,22.47-16.46,5.95-33.92,3.91-50.69-3.73Z"/>
  <polygon class="st0" points="549.05 843.15 542.93 859.08 514.57 936.78 484.27 936.85 480.12 924.8 450.02 843.38 479.73 843.12 495.59 894.26 500.13 907.26 519.58 843.24 549.05 843.15"/>
  <polygon class="st0" points="587 913.41 560.25 913.41 560.23 923.16 589.95 923.1 589.82 936.86 543.18 936.82 543.18 881.01 588.89 880.89 589.05 893.41 560.37 893.45 560.23 900.96 586.83 901.06 587 913.41"/>
  <path class="st0" d="M424.78,914.87c.09,6.49,5.42,8.74,10.68,8.44,4.87-.28,8.31-4.6,9.36-10.92l15.37,5.3c-2.33,13.09-13.04,19.12-25.15,19.43-11.02.28-20.4-3.65-25.28-14.27-4.96-10.8-4.58-25.49,4.34-34.81,9.54-9.96,26.96-10.72,37.34-3.07,4.68,3.45,6.89,7.71,7.86,12.84l-15.01,3.69c-1.51-5.48-6.31-8.3-10.65-8.01-4.86.33-9.11,4.71-9.03,9.95l.17,11.43Z"/>
  <path class="st0" d="M707.43,292.37c-2.1.9-6.56,1.22-9.26,1.59-6.05-3.75-11.54-7.6-16.2-12.92l-5.53-6.3,31.84-33.88,16.73,16.02c3.77,3.61,3.79,9.29,1.59,13.08-2.66,4.57-6.72,6.81-12.93,6.07,2.8,6.32.93,13.27-6.26,16.34ZM708.13,268.03c2.85,2.67,6.4,4.44,10.36,1.93,2.36-1.5,4.97-6.75,2.24-9.52l-11.57-11.75-9.96,10.99,8.92,8.36ZM706.09,273.47l-10.44-10.17-11.46,12.38,11.09,10.07c3.61,3.28,8.54,2.88,11.78-.28s2.64-8.49-.96-12Z"/>
  <path class="st0" d="M323.95,280.35c-11.92,2.63-23.8-8.71-28-19.25-3.65-9.17-.69-17.73,6.08-23.91,9.84-8.98,22.55-8.28,31.51,1.39,6.91,7.45,11.9,17.29,7.66,27.72-2.76,6.8-9.66,12.38-17.25,14.06ZM336.19,263.13c2.02-7.67-2.07-14.01-6.14-19.02-5.9-7.26-15.49-9.22-22.57-4.04-7.51,5.48-8.71,14.92-3.28,22.9,3.88,5.71,9.38,11.25,17.02,11.56,6.19.25,13.32-5.1,14.98-11.4Z"/>
  <path class="st0" d="M544.48,210.94c-6.25,5.74-15.18,5.77-22.42,3-9.46-3.63-12.6-16.03-7.48-16.94,5.43-.96,1.67,11.18,12.7,12.79,4.09.6,9,.45,12.37-2.17,1.45-1.12,2.45-5.07,2.11-6.74s-2.44-4.61-4.05-5.21l-14.94-5.58c-2.58-.96-6.21-4.32-6.76-6.96-1.07-5.22.39-9.81,3.45-13.17s8.41-4.56,13.55-4.14c9.7.78,16.96,7.45,15.41,15.18-.2,1.02-3.27,1.95-4.11,1.34s-1.43-2.29-2-4.01c-2.34-7.07-12.12-9.47-17.93-5.12-3.1,2.31-4.11,7.86-.49,9.99,9.53,5.62,20.24,5.38,23.39,13.37,1.72,4.36.92,10.98-2.79,14.38Z"/>
  <path class="st0" d="M589.99,196.07c-2.36.1-6.11,2.81-6.72,4.94l-5.69,19.94c-.47,1.65-6.06,1.73-5.68.18l6.04-25.15c.76-3.18-4.06-5.27-6.41-5.09-2.53.2-6.47,2.1-7.4,5.26l-6.23,21.04c-.39,1.32-5.66-.7-5.18-2.42l8.36-30.14c.54-.66,3.6-1.07,3.95-.31l1.81,3.9c6.59-4.37,14.37-1.66,17.77,5.33,4.86-2.69,9.24-3.13,13.24-.93,3.56,1.95,6.35,6.41,5.03,11.29l-6.39,23.62c-1.1,1.13-5.16.04-5.84-1.53l6.27-22.14c.42-1.48-.29-4.88-1.26-5.91s-3.59-1.95-5.66-1.86Z"/>
  <path class="st0" d="M335.32,229.31c1.89-1.5,3.66-2.65,4.95-3.21,6.23,6.75,11.07,11.98,18.37,18.57l-6.71-24.04c-.05-2.46,4.44-5,6.15-3.23l17.13,17.67c-1.31-15.09-11.46-27.13-1.47-27.84l8.35,33.12c.44,1.75-4.79,4.25-6.02,3l-17.38-17.7,6.22,24.57c.41,1.61-4.24,3.93-5.5,2.72l-10.33-9.94-13.78-13.69Z"/>
  <polygon class="st0" points="719.25 678.25 707.79 689.73 709.01 673.24 694.89 666.08 710.28 662.54 712.37 646.51 720.66 660.75 737.52 658.02 726.44 670.65 733.77 684.57 719.25 678.25"/>
  <polygon class="st0" points="241.32 558.04 235.03 573.16 230.22 558.14 213.87 557.2 226.74 548.06 223.02 532.27 236.22 541.4 249.45 533 244.93 548.02 257.12 557.61 241.32 558.04"/>
  <path class="st0" d="M305.14,679.84l-14.15,6.71,6.81-14.57-8.61-8.21-1.16-1.54c-2.24-3,7.63.17,15.24-.26l7.29-13.73,3.1,15.64,15.77,3.22-14.36,7.56,1.84,16.38-11.77-11.19Z"/>
  <path class="st0" d="M762.97,619.75l-8.34,14.51-2.83-15.67-15.68-4.19,13.85-6.6-1.66-16.6,11.29,11.86,14.94-6.49-7.02,14.06,10.13,11.04c-4.71.89-8.57-.06-14.68-1.92Z"/>
  <polygon class="st0" points="260.14 623.86 244.9 626.11 254.41 614.32 247.19 600.43 261.91 606.02 273.2 594.07 272.16 610.5 286.24 617.09 270.84 620.99 268.55 637.18 260.14 623.86"/>
  <polygon class="st0" points="778.53 554.02 763 553.77 774.24 544.12 768.45 528.6 782.69 537.12 795.23 527.24 792.12 542.46 805.3 551.4 789.78 552.99 785.54 568.77 778.53 554.02"/>
  <path class="st0" d="M458.3,210.99c-5.69-7.14-6.11-17.59-1.5-25.1,4.33-7.04,12.88-7.83,19.75-2.64l-1.63-13.39c-.14-1.19.85-3.47,1.81-3.75,1.44-.41,3.3.91,3.74,2.61l4.92,43.44c-.4.54-3.4,2.06-3.89,1.31l-2.12-3.26c-2.05,2.83-5.67,5.57-9,5.88-4.61.43-8.82-1-12.08-5.09ZM477.24,206.01c2.19-6.37,1.57-12.47-1.67-17.76-1.49-2.44-6.16-3.78-8.81-3.24-6.67,1.36-9.12,11.12-5.15,20.31,1.52,3.53,4.58,5.55,7.92,5.69,2.66.11,6.62-1.81,7.71-5Z"/>
  <path class="st0" d="M199.34,506.43c-2.34.98-3.74-3.81-2.51-5.78l38.57-15.71-38.3-10.31c-2.13-.57-2.81-5.33-1.26-7.21l46.15,13.54c1.45,1.42,1.69,5.77.48,7.48l-43.13,17.99Z"/>
  <path class="st0" d="M605,232.22c-1.94-2.65-1.4-7.46.12-10.25,6.18-11.3,20.99.68,25.79-2.4.92-.59,1.53-3.47,1.21-4.64-1.43-5.27-8.6-7.89-13.01-4.91-1.24.84-2.46,1.52-3.3,1.67-1.03.18-3.11-2.45-2.33-3.6,3.51-5.12,12.17-5.77,18.05-1.73,4.5,3.09,8.47,7.3,5.83,13.08l-8.73,19.09c1.27,1.57,2.35,3.01,2.37,3.99s-2.87,1.96-3.77,1.57c-2.64-1.15-4.47-4.03-4.35-7.01-6.4,1.98-13.31,1.38-17.88-4.86ZM627.86,225.12l-10.05-2.76c-3.9-1.07-7.13.29-7.83,4.31-.46,2.6,1.51,5.44,5.01,6.55,2.46.78,7.4.52,9.41-1.03,1.7-1.31,3.23-5.33,3.47-7.07Z"/>
  <path class="st0" d="M253,345.51l3.9-11.73c.55-1.67-2.88-4.47-4.55-4.37s-4.21,1.83-5.3,3.45c-2.75,4.09-2.89,7.94.9,11.56l-2.7,4.26c-2.13-1.77-4.61-4.01-5.03-5.63-2.49-9.68,7.84-22.44,14.49-18.96l20.14,10.56c1.09-1.17,4.64-2.38,5.53-1.06.78,1.16-.11,4.51-1.31,5.19-1.25.72-3.79,1.38-5.86,1.84,1.23,4.91,1,10.8-2.76,14.72-3.48,3.63-7.98,4.38-11.94,2.6-4.29-1.93-7.41-6.76-5.52-12.44ZM268.87,348.06c.93-2.58,1.08-7.39-.55-9.48-1.35-1.74-4.94-3.69-6.68-4.17l-3.48,10.86c-1,3.11.46,6.49,3.58,7.47,2.73.86,5.7-.71,7.13-4.68Z"/>
  <path class="st0" d="M443.4,210.97l1.62-3.56c.42-.93,4.05-.24,4.32.59.15,5.83-4.23,11.34-8.95,13.15-6.12,2.35-12.44,1.39-16.98-3.68s-6.46-12.31-5.11-19.14c1.85-9.4,11.47-14.8,20.56-11.06,5.69,2.34,8.7,8.44,9.43,14.77l-22.81,5.84c-.27,4.2,2.9,7.99,6.35,8.89,4.98,1.3,9.37-.98,11.57-5.81ZM441.3,199.04c-.41-3.45-2.59-6.67-5.37-7.57s-6.43-.12-8.67,1.63c-3.44,2.7-4.18,6.54-2.8,10.19l16.83-4.25Z"/>
  <path class="st0" d="M777.65,405.11c-3.09.34-7.42,2.45-8.86,5.58-1.83,4,.49,10.34,4.49,11.82,3.11,1.15,5.89,3.12,4.84,6.52-8.84.53-14.52-6.47-14.94-14.74-.38-7.58,5.5-13.76,13.61-15.67,5.64-1.33,11.56-1.62,16.62,2.22,3.58,2.72,6.83,8.41,6.09,14.05-1.03,7.88-8.28,12.67-16.18,13.1l-5.69-22.88ZM786.32,421.38c6.86-1.08,9.42-6.71,7.28-12.25-1.56-4.04-6.67-6.98-11.36-5.28l4.09,17.53Z"/>
  <path class="st0" d="M236.48,444.12l-3.02-2.61c-.65-.57.95-4.03,1.89-3.88,4.18.69,8.63,6.37,9.16,10.49.64,5-.34,10.63-4.28,14.03-7.28,6.29-17.44,5.99-25.29.9-6.59-4.26-8.25-12.35-5.19-18.94,3.28-7.07,11.75-9.79,19.38-7.45l-1.74,23.63c3.44.88,8.81-.67,10.67-3.65,2.54-4.07,2.32-9.16-1.57-12.53ZM224.08,441.91c-7.46-.71-10.61,3.91-10.62,9.42,0,4.55,3.54,8.6,9.25,8.39l1.37-17.81Z"/>
  <path class="st0" d="M248.41,391.54l-3.04-4.46c-.62-.91.79-3.77,1.45-4.39,5.94,3.09,8.57,9.26,7.37,15.56-1.05,5.5-5.27,10.67-12.02,12.18-8.97,2-23.89-5.09-23.87-16.16,0-4.98,1.99-10.55,6.63-13.29,5.31-3.14,11.05-2.59,16.94-.22l-6.49,23.44c2.29.34,7.21.72,9.47-.35,4.09-1.93,5.86-8.95,3.56-12.32ZM235.75,384.9c-7.51-2.02-11.29,2.08-12.24,6.98s2.02,9.5,7.41,10.47l4.83-17.45Z"/>
  <path class="st0" d="M808.19,483.48c.56,6.81-4.6,12.71-9.63,13.22-.75.08-2.12-2.55-1.76-3.25.45-.86,1.62-2.12,2.82-2.85,4.44-2.71,4.11-10.25,1.19-13.15-.96-.95-4.69-.64-5.33.38-3.51,5.62-2.47,14.38-7.78,18.68-3.86,3.12-9.18,1.14-12.22-1.39-3.46-2.86-4.18-7.21-4.35-11.86-.27-7.22,4.85-13.55,11.6-13.24.62.51,1.32,3.81.56,4.27l-3.87,2.35c-3.92,2.38-3.95,8.01-2.26,12.38.52,1.33,3.02,3.21,4.38,3.26,1.62.06,4.12-2.15,4.58-3.79l3.34-11.9c1.28-4.57,5.9-6.74,10.46-5.5,5.46,1.48,7.78,6.46,8.27,12.4Z"/>
  <path class="st0" d="M745.29,349.74c-7.22,1.04-11.34-3.68-14.29-8.71-3.72-6.35-2.5-12.98,3.81-17.09l2.06,3.69c.76,1.36-6.32,4.57.53,14.06,1.5,2.07,4.56,3.44,6.63,2.74,7.36-2.5-2.16-12.47-.04-23.47.51-2.64,5.27-4.94,7.61-5.08,3.31-.2,6.79,1.61,9.23,4.17,5.47,5.74,6.73,13.79.03,19.55l-2.92-4.28c3.54-4.23,2.55-8.6-1.21-12.32-.98-.97-3.59-2-4.89-1.79s-3.18,3.48-2.78,4.84l3.38,11.7c.64,2.21.72,5.67-.3,7.59-.93,1.76-4.28,4.02-6.84,4.39Z"/>
  <path class="st0" d="M775.09,462.18c-5.95-4.94-7.4-14.19-3.75-20.91,1.08-1.98,5.4-4.46,7.48-4.8.88-.15,2.35,3.5,1.64,4.03l-2.89,2.21c-3.77,2.88-3.88,7.45-2.13,12.03.77,2.02,3.01,3.98,5.09,4.01,2.29.04,4.04-2.36,4.41-4.64l1.94-12.24c.41-2.61,3.7-5.68,5.91-6.3,2.89-.81,7.65.48,9.6,2.95,4.28,5.44,5.55,12.54,1.65,18.71-1.1,1.74-4.71,3.55-6.71,4.35-1.86-4.47-.03-5.46,2.49-8.06,2.12-2.19,1.54-8.19-.46-10.91-.66-.9-3.35-1.6-4.37-1.2s-2.85,2.42-3.01,3.53l-1.6,11.42c-.41,2.95-2.74,6.1-4.8,7.11-2.73,1.34-7.47,1.24-10.51-1.28Z"/>
  <path class="st0" d="M390.95,212.43l7.52,20.77-4.84,2.47-11.52-29.1c-.48-1.22.4-3.7,1.74-4.38,1.01-.52,2.51.83,4.08,2.95,2.75-5.98,8.6-10.84,15.94-8.83,2.58.71,5.63,4.49,6.69,7.27l7.42,19.4c.33.86,0,3.75-.86,3.76h-3.72s-9.37-22.79-9.37-22.79c-1.34-3.25-7.08-2.01-9.21-.68s-5.16,5.58-3.86,9.18Z"/>
  <path class="st0" d="M270.69,311.96l16.31,12.2c.71,1.29-2.65,4.83-3.82,4.09l-26.18-19.19,2.07-3.56c.43-.74,3.04.12,3.81.35-.58-6.93,3.8-14.29,9.15-15.57,2.45-.59,6.35.58,8.46,2.11l19.44,14.02c-.07,1-1.16,3.52-1.96,4.28-.93.87-3.42-1.11-4.63-1.96l-18.51-12.93c-3.28-.4-6.57,3.82-7.27,6.24-1.01,3.48-.42,7.26,3.13,9.92Z"/>
  <path class="st0" d="M744.47,304.94l-19.68,15.88c-.97.79-2.28,2.11-3.19,2.09s-2.57-1.79-2.71-2.68,1.04-2.17,2.26-3.83c-5.63.28-9.97-2.13-12.34-7.38-1.56-3.46-1.32-8.38,2.15-11.2l19.5-15.84c1.21-.98,4.65,3.55,3.47,4.54l-19.25,16.27c-2.49,2.1.16,7.39,2.36,8.68s6.81,2.16,9.75-.09l16.82-12.86c.94-.72,3.39,1.27,3.42,2.35s-1.31,3.04-2.58,4.07Z"/>
  <path class="st0" d="M758.03,391.91c8.91-3.58,16.97-5.7,24.33-10.7,2.71-1.84.61-7.47-1.08-9.3-1.88-2.02-6.98-3.62-9.72-2.55l-19.71,7.73-2.01-5.28,30.94-12.14c.84.32,3.11,3.3,2.38,3.89l-3.5,2.83c6.97,2.52,11.24,8.97,9,16.44-.53,1.75-3.55,4.68-5.32,5.37l-23.74,9.22c-.58-1.34-1.33-3.89-1.58-5.53Z"/>
  <path class="st0" d="M221.16,424.64c-1.25-.18-3.57-.6-3.96.05l-2.04,3.33c-.78,1.27-3.44-2.12-3.63-3.9-.32-3-7.23-.91-8.51-3.57-.44-.92-.12-4.02.89-4.18s2.74,0,4.36.16l4.02.41c1.03.11,1.17-3.09,1.5-4.11.31-.97,3.72-.75,3.84.25l.66,5.18,12.34,2.28,11.48,1.37,1.73-3.99c.42-.97,4.11.1,4.12,1.12.04,2.38-1.45,7.01-3.38,9.03l-23.43-3.42Z"/>
  <path class="st0" d="M643.03,247.44c-.67,1.15-2.62,2.87-3.54,2.62s-2.52-1.99-2.9-2.85l23.02-39.51,4.85,3.11-21.43,36.63Z"/>
  <path class="st0" d="M654.77,258.38c-1.1.34-3.11.53-3.41-.11l-1.39-2.93,24.48-38.37,4.63,3.22-24.31,38.2Z"/>
  <path class="st0" d="M261.04,374.07l-2.19,5.11-31.31-12.79,1.37-3.95c.32-.91,3.18.02,4.18.36-.97-3.66-2.18-7.09-.86-10.83.59-1.67,5.95.16,5.47,1.76-1.29,4.29-1.11,10.04,3.56,12.01l19.78,8.33Z"/>
  <path class="st0" d="M746.77,363.79c-1.27.64-4.08-4.07-2.86-4.7l28.08-14.38c1.48-.76,4.02,2.93,3.7,4.55l-28.92,14.53Z"/>
  <path class="st0" d="M782.24,339.14c1.1-.78,3.95.56,4.52,1.78.62,1.33-.2,3.34-1.56,3.94-1.44.64-3.67.36-4.59-.86-.83-1.12-.63-3.24,1.63-4.85Z"/>
</svg>