<?xml version="1.0" encoding="UTF-8"?>
<svg id="Layer_1" data-name="Layer 1" xmlns="http://www.w3.org/2000/svg" viewBox="0 0 750 750">
  <defs>
    <style>
      .cls-1 {
        fill: #534422;
      }
    </style>
  </defs>
  <path class="cls-1" d="M715.18,702.93c-2.02-41.25-6.71-85.02-25.73-120.88-10.31-19.45-26.86-32-48.1-38.09-39.8-11.41-77.21-27.07-112.14-49.37-9.89-6.31-19.27-13.44-26.4-22.25l-17.67-21.81c-4.4,23.15-8.36,42.01-15.07,63.42l-44.55,142.16c-4.55,14.52-8.15,27.72-14.11,41.66-4.91-38.42-8.24-72.36-15.38-108.39l14.58-27.21c-13.47-15.35-26.74-30.3-37.86-47.17-13.31,15.11-25,30.44-35.57,47.46,23.5,39.65,8.83,89.04-.22,135.66-6.26-14.42-9.43-27.03-13.4-41.1l-22.72-80.66-27.26-87.73c-3.58-11.52-4.45-22.89-6.65-36.06-46.27,69.02-127.35,69.14-187.75,104.95-9.35,5.54-15.59,13.91-19.51,23.8-12.93,32.58-20.36,65.81-25.05,99.55v182.05h680.79v-160.04l-.22.07ZM264.48,342.77c1.4,20.97,8.04,38.87,20.97,54.24l.21,52.06c18,26.9,55.43,47.33,86.42,60.97,30.07-10.36,81.89-39.26,89.65-64.56l2.34-52.22c4.31-11.22,12.04-21.83,15.51-34.06l5.96-21.02c6.06-.91,10.93-3.65,13.1-8.79,7.59-18.01,11.65-36.65,13.39-56.13.73-8.21-3.39-13.77-12.77-14.83.6-5.47,1.27-11.83,2.79-17.15,14.3-50.02-.93-102.02-39.73-136.39-23.74-21.03-52.09-31.85-82.7-36.12l-52.44-.34-1.13,3.87c-.89,2.29-8.42-.55-14.99,6.83l-4.43-3.27-1.68,13.2-15.3-.15,2.94,9.39c-48.31,43.29-63.96,97.19-45.86,159.97-9.07,1-14.61,7.51-14.33,16.37.81,26.14,12.79,51.31,32.07,68.15Z"/>
</svg>