<?xml version="1.0" encoding="UTF-8"?>
<svg id="Layer_1" data-name="Layer 1" xmlns="http://www.w3.org/2000/svg" viewBox="0 0 750 750">
  <defs>
    <style>
      .cls-1 {
        fill: #534422;
      }
    </style>
  </defs>
  <path class="cls-1" d="M405.64,577.36c19.45-.97,51.61-46.67,60.19-63.41,15.34-29.91,3.38-39.38,8.39-68.51,3.15-18.32,18.25-28.09,23.63-42.58,5.18-13.95,3.31-36.08,5.31-51.29,12.34-1.14,22.7,5.03,28.83-8.55,9.79-21.68,16.57-58.74,13.96-82.26-2.38-21.45-15.8-14.28-18.75-13.79,1.7-13.17,3.34-26.41,2.96-38.49-2.92-94.23-157.18-166.17-229.88-104.72-15.87,13.41-19.42,27.52-30.76,41.07-5.6,6.69-13.7,10.1-19.36,17.58-18.97,25.11-12.88,66.8-9.28,97.96-13.75-5.56-23.26-10.01-28.11,9.11-5.73,22.6,4.47,24.84,10.64,42.48,8.27,23.64,8.99,72.86,46.87,41.75,1.36,13.57-3.03,25.65-1.84,39.26,1.31,15.03,11.17,28.68,12.42,41.07.84,8.3-2.76,14.28-1.56,22.7,4.72,33.2,58.1,67.09,82.89,88.1,10.44,8.85,28.94,33.23,43.43,32.51ZM248.95,490.43c-5.22-.69-8.82,2.75-12.61,5.53-12.71,9.33-25.52,23.61-38.88,33.75-40.27,30.56-84.79,49.81-132.69,65.41-1.61.77-3.56,3.86-3.81,5.3v160.19l3.2,3.2h278.78c-21.78-69.56-59.9-132.86-83.35-201.8-7.94-23.33-17.91-46.6-10.65-71.58ZM598.4,577.83c-36.3-9.84-77.88-33.18-108.02-55.37,4.83,80.51,29.53,160.18,21.34,241.35h174.11l3.2-3.2v-151.65c-23.83-23.94-60.03-22.83-90.63-31.13ZM441.65,637.29c.78-5.61,8.41-22.29,7.71-25.91-14.73-15.32-21.67-29.43-45.64-27.12-13.11,1.26-23,18.69-32.83,27.12l24.89,36.25c-6.01,36.82-10.39,73.69-3.65,110.81.44,2.42,1.01,4,3.18,5.36h86.52c-3.89-27.01-13.78-56.44-23.45-82.28-4.44-11.86-18.29-32.91-16.72-44.24Z"/>
</svg>